<svg xmlns="http://www.w3.org/2000/svg" style="display: none;">
  <symbol id="logo" viewBox="0 0 45 46">
    <path d="M15.7343 16.2343H29.4231V29.9231H15.7343V16.2343Z" fill="#F5F5F5" />
    <path fill-rule="evenodd" clip-rule="evenodd"
      d="M45 23C45 35.4264 34.9264 45.5 22.5 45.5C10.0736 45.5 0 35.4264 0 23C0 10.5736 10.0736 0.5 22.5 0.5C34.9264 0.5 45 10.5736 45 23ZM22.5 39.049C31.2767 39.049 38.3916 31.934 38.3916 23.1573C38.3916 14.3806 31.2767 7.26574 22.5 7.26574C13.7233 7.26574 6.60839 14.3806 6.60839 23.1573C6.60839 31.934 13.7233 39.049 22.5 39.049Z"
      fill="#F5F5F5" />
  </symbol>

  <symbol id="headerButton" viewBox="0 0 35 36">
    <path d="M0.485107 0.366028H14.1739V14.0548H0.485107V0.366028Z" fill="#F5F5F5" />
    <path d="M21.3112 0.366028H35.0001V14.0548H21.3112V0.366028Z" fill="#F5F5F5" />
    <path d="M21.3112 21.9451H35.0001V35.6339H21.3112V21.9451Z" fill="#F5F5F5" />
    <path d="M0.485114 21.8938H14.1739V35.5826H0.485114V21.8938Z" fill="#F5F5F5" />
  </symbol>

  <symbol id="vk" viewBox="0 0 40 40">
    <path fill-rule="evenodd" clip-rule="evenodd"
      d="M39.0083 28.1084C38.1017 26.2825 36.9069 24.6144 35.47 23.1684C34.9894 22.6252 34.4862 22.1026 33.9617 21.6017L33.8983 21.54C33.7036 21.3509 33.5113 21.1592 33.3217 20.965C35.286 18.2335 36.9669 15.309 38.3383 12.2367L38.3933 12.1134L38.4317 11.9834C38.6133 11.3784 38.82 10.2284 38.0867 9.18837C37.3267 8.11504 36.1117 7.9217 35.2967 7.9217H31.5517C30.7675 7.88597 29.9921 8.0992 29.3365 8.53089C28.6809 8.96257 28.1787 9.59058 27.9017 10.325C27.0957 12.2444 26.0866 14.0721 24.8917 15.7767V11.3884C24.8917 10.8217 24.8383 9.8717 24.23 9.0717C23.5033 8.11171 22.4517 7.9217 21.7217 7.9217H15.7783C15.0028 7.90386 14.2501 8.18497 13.6761 8.70683C13.1021 9.22868 12.7508 9.9513 12.695 10.725L12.69 10.8V10.875C12.69 11.6834 13.01 12.28 13.2667 12.655C13.3817 12.8234 13.5033 12.9767 13.5817 13.0734L13.5983 13.095C13.6817 13.1984 13.7367 13.2667 13.7917 13.3434C13.9383 13.54 14.1467 13.8467 14.2067 14.6367V17.0917C13.0136 15.0939 12.0354 12.9754 11.2883 10.7717L11.275 10.735L11.2617 10.7C11.0583 10.1684 10.7333 9.39504 10.0817 8.80504C9.32166 8.11337 8.42166 7.9217 7.60332 7.9217H3.80332C2.97499 7.9217 1.97666 8.11504 1.23166 8.90004C0.49999 9.67337 0.416656 10.6 0.416656 11.09V11.3134L0.463323 11.53C1.51549 16.4147 3.68372 20.9896 6.79832 24.8967C8.22228 27.1422 10.1555 29.0205 12.4411 30.3792C14.7267 31.7378 17.3003 32.5387 19.9533 32.7167L20.0217 32.7217H20.0917C21.3017 32.7217 22.5633 32.6167 23.5117 31.985C24.79 31.1317 24.8917 29.8234 24.8917 29.17V27.2734C25.22 27.54 25.6267 27.8967 26.125 28.3767C26.7283 28.98 27.2083 29.5034 27.62 29.96L27.84 30.2034C28.16 30.56 28.475 30.9117 28.7617 31.2C29.1217 31.5617 29.5667 31.96 30.1233 32.255C30.7283 32.5734 31.3633 32.7184 32.0367 32.7184H35.8383C36.64 32.7184 37.7883 32.5284 38.5967 31.5917C39.4767 30.5717 39.41 29.32 39.1333 28.4217L39.0833 28.26L39.0083 28.1084ZM29.475 28.285C28.9584 27.7076 28.4266 27.1441 27.88 26.595L27.875 26.59C25.6133 24.41 24.5583 24.0317 23.8117 24.0317C23.4133 24.0317 22.975 24.075 22.69 24.4317C22.5617 24.6018 22.4775 24.8011 22.445 25.0117C22.4048 25.2562 22.387 25.5039 22.3917 25.7517V29.17C22.3917 29.595 22.3217 29.7734 22.125 29.9034C21.8633 30.0784 21.305 30.22 20.1067 30.22C17.8303 30.0652 15.6233 29.3722 13.6669 28.1982C11.7106 27.0241 10.0609 25.4025 8.85332 23.4667L8.83999 23.445L8.82332 23.425C5.92185 19.8136 3.89973 15.5771 2.91666 11.05C2.92332 10.8334 2.96999 10.7017 3.04666 10.6217C3.12499 10.5384 3.31666 10.4217 3.80332 10.4217H7.60332C8.02499 10.4217 8.24499 10.515 8.40332 10.6567C8.57999 10.82 8.73666 11.095 8.92332 11.585C9.85666 14.3284 11.1167 16.895 12.3117 18.78C12.9083 19.7234 13.495 20.5084 14.025 21.0634C14.29 21.34 14.5483 21.57 14.7967 21.7334C15.035 21.89 15.3067 22.015 15.5867 22.015C15.7333 22.015 15.905 21.9984 16.07 21.9267C16.2482 21.848 16.3949 21.7119 16.4867 21.54C16.6583 21.2267 16.7067 20.765 16.7067 20.16V14.5384C16.6183 13.175 16.2067 12.4067 15.8067 11.8617C15.7256 11.7527 15.6423 11.6454 15.5567 11.54L15.535 11.5134C15.4639 11.427 15.3961 11.3381 15.3317 11.2467C15.2496 11.1448 15.2002 11.0205 15.19 10.89C15.2031 10.7576 15.2663 10.6352 15.3666 10.5478C15.467 10.4604 15.597 10.4147 15.73 10.42H21.7217C22.065 10.42 22.18 10.5034 22.2383 10.5817C22.3217 10.69 22.3917 10.915 22.3917 11.3884V18.935C22.3917 19.8317 22.805 20.4384 23.405 20.4384C24.095 20.4384 24.5933 20.02 25.4633 19.15L25.4783 19.1334L25.4917 19.1184C27.4433 16.7388 29.0378 14.0877 30.225 11.2484L30.2317 11.2284C30.3209 10.9775 30.4897 10.7627 30.7124 10.6168C30.9351 10.4708 31.1994 10.4017 31.465 10.42H35.2983C35.8183 10.42 35.9883 10.5534 36.045 10.6317C36.1033 10.715 36.145 10.8934 36.045 11.2434C34.676 14.304 32.9836 17.2094 30.9967 19.91L30.9833 19.93C30.7917 20.225 30.58 20.5517 30.55 20.925C30.5167 21.3284 30.69 21.6934 30.995 22.0867C31.2167 22.4134 31.675 22.8617 32.14 23.3167L32.1833 23.36C32.67 23.8367 33.1983 24.3534 33.6217 24.8534L33.6333 24.865L33.645 24.8784C34.9073 26.1375 35.9571 27.5931 36.7533 29.1884C36.88 29.6217 36.8033 29.845 36.7033 29.96C36.5883 30.0934 36.33 30.2184 35.84 30.2184H32.0367C31.7774 30.2247 31.5209 30.1644 31.2917 30.0434C31.0107 29.8799 30.7556 29.6755 30.535 29.4367C30.2967 29.1984 30.0383 28.91 29.7217 28.5584L29.4767 28.285H29.475Z"
      fill="#DFDC01" />
  </symbol>

  <symbol id="tg" viewBox="0 0 40 40">
    <path
      d="M32.5875 4.99505C32.1862 5.02425 31.7923 5.11839 31.4212 5.2738H31.4162C31.06 5.41505 29.3662 6.12755 26.7912 7.20755L17.5637 11.0938C10.9425 13.8813 4.43375 16.6263 4.43375 16.6263L4.51125 16.5963C4.51125 16.5963 4.0625 16.7438 3.59375 17.0651C3.30416 17.2493 3.05496 17.4904 2.86125 17.7738C2.63125 18.1113 2.44625 18.6276 2.515 19.1613C2.6275 20.0638 3.2125 20.6051 3.6325 20.9038C4.0575 21.2063 4.4625 21.3476 4.4625 21.3476H4.4725L10.5762 23.4038C10.85 24.2826 12.4362 29.4976 12.8175 30.6988C13.0425 31.4163 13.2612 31.8651 13.535 32.2076C13.6675 32.3826 13.8225 32.5288 14.0087 32.6463C14.1056 32.7026 14.2088 32.7471 14.3162 32.7788L14.2537 32.7638C14.2725 32.7688 14.2875 32.7838 14.3012 32.7888C14.3512 32.8026 14.385 32.8076 14.4487 32.8176C15.415 33.1101 16.1912 32.5101 16.1912 32.5101L16.235 32.4751L19.8387 29.1938L25.8787 33.8276L26.0162 33.8863C27.275 34.4388 28.55 34.1313 29.2237 33.5888C29.9025 33.0426 30.1662 32.3438 30.1662 32.3438L30.21 32.2313L34.8775 8.32005C35.01 7.73005 35.0437 7.17755 34.8975 6.6413C34.7466 6.09859 34.3985 5.63181 33.9212 5.33255C33.5205 5.08895 33.0559 4.97136 32.5875 4.99505ZM32.4612 7.55755C32.4562 7.6363 32.4712 7.62755 32.4362 7.7788V7.79255L27.8125 31.4551C27.7925 31.4888 27.7587 31.5626 27.6662 31.6363C27.5687 31.7138 27.4912 31.7626 27.085 31.6013L19.6975 25.9376L15.235 30.0051L16.1725 24.0176L28.2425 12.7676C28.74 12.3051 28.5737 12.2076 28.5737 12.2076C28.6087 11.6401 27.8225 12.0413 27.8225 12.0413L12.6025 21.4701L12.5975 21.4451L5.3025 18.9888V18.9838L5.28375 18.9801C5.29653 18.9758 5.30906 18.9708 5.32125 18.9651L5.36125 18.9451L5.4 18.9313C5.4 18.9313 11.9137 16.1863 18.535 13.3988C21.85 12.0026 25.19 10.5963 27.7587 9.5113C29.2822 8.87006 30.8072 8.23256 32.3337 7.5988C32.4362 7.5588 32.3875 7.55755 32.4612 7.55755Z"
      fill="#DFDC01" />
  </symbol>


  <symbol id="footerLogo" viewBox="0 0 152 152">
    <path d="M53.1469 52.929H99.3846V98.8626H53.1469V52.929Z" fill="#2D2650" />
    <path fill-rule="evenodd" clip-rule="evenodd"
      d="M152 75.6318C152 117.329 117.974 151.132 76 151.132C34.0264 151.132 0 117.329 0 75.6318C0 33.9343 34.0264 0.131836 76 0.131836C117.974 0.131836 152 33.9343 152 75.6318ZM76 129.485C105.646 129.485 129.678 105.61 129.678 76.1598C129.678 46.7091 105.646 22.8346 76 22.8346C46.3543 22.8346 22.3217 46.7091 22.3217 76.1598C22.3217 105.61 46.3543 129.485 76 129.485Z"
      fill="#DFDC01" />
  </symbol>

  <symbol id="asteqFooterLogo" viewBox="0 0 45 11">
    <path
      d="M5.34818 8.15851H2.42981L1.71324 10.0239H0L3.96716 0.131836H4.04534L7.99947 10.0239H5.99961L5.34818 8.15851ZM4.76842 6.56872L3.92157 4.25116L3.03563 6.56872H4.76842Z"
      fill="#2D2650" />
    <path
      d="M13.2105 2.103C12.8988 2.0782 12.5874 2.15708 12.3181 2.3291C12.2085 2.41541 12.1214 2.53112 12.0655 2.6649C12.0095 2.79867 11.9866 2.94591 11.9989 3.09221C12.0067 3.25613 12.0533 3.4151 12.1344 3.55373C12.2154 3.69236 12.328 3.80597 12.4614 3.88357C12.8428 4.15699 13.2542 4.37773 13.6861 4.54068C14.0609 4.68429 14.4193 4.87394 14.7544 5.10594C15.0574 5.33209 15.3073 5.63217 15.484 5.98209C15.691 6.41819 15.7897 6.9052 15.7706 7.39524C15.7738 7.89275 15.6445 8.38068 15.3984 8.80053C15.1523 9.22037 14.7998 9.5543 14.3831 9.76227C13.8774 10.0241 13.3211 10.1502 12.761 10.1297C12.2354 10.1302 11.7127 10.0444 11.2106 9.87532C10.692 9.71224 10.2029 9.45415 9.76448 9.11222L10.5592 7.64254C10.8753 7.89516 11.2244 8.0952 11.595 8.23607C11.9312 8.38196 12.2883 8.46326 12.6503 8.4763C12.9846 8.4846 13.315 8.39685 13.6079 8.22193C13.7389 8.13574 13.8445 8.01093 13.9126 7.86205C13.9807 7.71317 14.0083 7.54637 13.9922 7.38111C13.9922 6.89357 13.5688 6.46963 12.6894 6.11634C12.2586 5.93801 11.8387 5.73034 11.4321 5.49456C11.0863 5.2895 10.7878 5.00201 10.5592 4.65373C10.3018 4.23691 10.174 3.74177 10.1944 3.24059C10.1854 2.87218 10.2487 2.5059 10.3801 2.16603C10.5115 1.82617 10.708 1.52048 10.9566 1.26924C11.5027 0.736431 12.209 0.437537 12.9434 0.42842C13.4966 0.415931 14.0483 0.496981 14.5785 0.668656C15.0399 0.840151 15.478 1.07778 15.8814 1.37523L15.2299 2.78838C14.6206 2.37935 13.9261 2.14362 13.2105 2.103Z"
      fill="#2D2650" />
    <path d="M24.0046 0.485337V2.32949H21.8679V10.0241H20.1286V2.32949H18.0766V0.485337H24.0046Z"
      fill="#2D2650" />
    <path
      d="M26.8451 2.32949V0.485337H32.8512V2.32949H26.8451ZM26.8451 6.18032V4.33616H32.3822V6.15206L26.8451 6.18032ZM28.5779 8.24352H33.0141V10.0523H26.8451V8.21525L28.5779 8.24352Z"
      fill="#2D2650" />
    <path
      d="M40.896 10.024C40.592 10.0946 40.2819 10.1301 39.971 10.13C39.1837 10.1366 38.4094 9.91195 37.7301 9.47999C37.2209 9.16099 36.7747 8.73627 36.4169 8.23012C36.0592 7.72397 35.7969 7.14631 35.645 6.53014C35.4932 5.91398 35.4548 5.27139 35.532 4.63912C35.6092 4.00685 35.8005 3.39728 36.0951 2.84525C36.4879 2.10376 37.0512 1.4854 37.7301 1.05055C38.4081 0.613242 39.1822 0.38242 39.971 0.38242C40.7598 0.38242 41.534 0.613242 42.2119 1.05055C42.8946 1.48731 43.4639 2.10481 43.8665 2.84525C44.1926 3.43718 44.3958 4.09903 44.4622 4.78478C44.5286 5.47053 44.4565 6.16374 44.2509 6.8162C44.1003 7.30685 43.8805 7.76925 43.5994 8.18696H45V10.024H40.896ZM37.6454 6.795C37.8851 7.24899 38.2283 7.62855 38.6421 7.89726C39.0612 8.17609 39.5445 8.32062 40.0362 8.31414C40.5128 8.31551 40.9802 8.17102 41.3846 7.89726C41.7858 7.62511 42.1155 7.2455 42.3422 6.795C42.5692 6.32395 42.6876 5.80031 42.6875 5.2688C42.6871 4.73564 42.5639 4.21103 42.3292 3.7426C42.1034 3.29778 41.7734 2.9255 41.3725 2.66345C40.9715 2.4014 40.5138 2.25886 40.0458 2.25025C39.5777 2.24165 39.1159 2.36728 38.707 2.61445C38.2981 2.86161 37.9566 3.22154 37.7171 3.65781C37.6995 3.68449 37.6842 3.71287 37.6715 3.7426C37.4308 4.20846 37.3072 4.7348 37.3132 5.2688C37.2983 5.80037 37.4129 6.32681 37.6454 6.795Z"
      fill="#2D2650" />
  </symbol>

  <symbol id="arrow-top-right" viewBox="0 0 22 22">
    <g clip-path="url(#clip0_2156_213)">
      <path
        d="M0 22V18.8571H3.14286V15.7143H6.28571V12.5714H9.42857V9.42857H12.5714V6.28571H15.7143V3.14286H1.57143V0H18.8571H22V3.14286V20.4286H18.8571V6.28571H15.7143V9.42857H12.5714V12.5714H9.42857V15.7143H6.28571V18.8571H3.14286V22H0Z"
        fill="#2D2650" />
    </g>
    <defs>
      <clipPath id="clip0_2156_213">
        <rect width="22" height="22" fill="white" />
      </clipPath>
    </defs>
  </symbol>

  <symbol id="business" viewBox="0 0 255 45">
    <mask id="path-1-outside-1_4101_784" maskUnits="userSpaceOnUse" x="0" y="0" width="255"
      height="45" fill="black">
      <rect fill="white" width="255" height="45" />
      <path
        d="M5 40V5H35V10H15V20H35V25H40V35H35V40H5ZM15 35H30V25H15V35ZM47 40V5H57V25H62V20H67V15H72V5H82V40H72V25H67V30H62V35H57V40H47ZM94 40V35H89V30H99V35H114V25H99V20H114V10H99V15H89V10H94V5H119V10H124V20H119V25H124V35H119V40H94ZM131 40V5H141V20H156V5H166V40H156V25H141V40H131ZM173 40V5H208V10H183V20H203V25H183V35H208V40H173ZM225 40V35H220V30H215V15H220V10H225V5H245V10H250V15H240V10H230V15H225V30H230V35H240V30H250V35H245V40H225Z" />
    </mask>
    <path
      d="M5 40H0V45H5V40ZM5 5V0H0V5H5ZM35 5H40V0H35V5ZM35 10V15H40V10H35ZM15 10V5H10V10H15ZM15 20H10V25H15V20ZM35 20H40V15H35V20ZM35 25H30V30H35V25ZM40 25H45V20H40V25ZM40 35V40H45V35H40ZM35 35V30H30V35H35ZM35 40V45H40V40H35ZM15 35H10V40H15V35ZM30 35V40H35V35H30ZM30 25H35V20H30V25ZM15 25V20H10V25H15ZM10 40V5H0V40H10ZM5 10H35V0H5V10ZM30 5V10H40V5H30ZM35 5H15V15H35V5ZM10 10V20H20V10H10ZM15 25H35V15H15V25ZM30 20V25H40V20H30ZM35 30H40V20H35V30ZM35 25V35H45V25H35ZM40 30H35V40H40V30ZM30 35V40H40V35H30ZM35 35H5V45H35V35ZM15 40H30V30H15V40ZM35 35V25H25V35H35ZM30 20H15V30H30V20ZM10 25V35H20V25H10ZM47 40H42V45H47V40ZM47 5V0H42V5H47ZM57 5H62V0H57V5ZM57 25H52V30H57V25ZM62 25V30H67V25H62ZM62 20V15H57V20H62ZM67 20V25H72V20H67ZM67 15V10H62V15H67ZM72 15V20H77V15H72ZM72 5V0H67V5H72ZM82 5H87V0H82V5ZM82 40V45H87V40H82ZM72 40H67V45H72V40ZM72 25H77V20H72V25ZM67 25V20H62V25H67ZM67 30V35H72V30H67ZM62 30V25H57V30H62ZM62 35V40H67V35H62ZM57 35V30H52V35H57ZM57 40V45H62V40H57ZM52 40V5H42V40H52ZM47 10H57V0H47V10ZM52 5V25H62V5H52ZM57 30H62V20H57V30ZM67 25V20H57V25H67ZM62 25H67V15H62V25ZM72 20V15H62V20H72ZM67 20H72V10H67V20ZM77 15V5H67V15H77ZM72 10H82V0H72V10ZM77 5V40H87V5H77ZM82 35H72V45H82V35ZM77 40V25H67V40H77ZM72 20H67V30H72V20ZM62 25V30H72V25H62ZM67 25H62V35H67V25ZM57 30V35H67V30H57ZM62 30H57V40H62V30ZM52 35V40H62V35H52ZM57 35H47V45H57V35ZM94 40H89V45H94V40ZM94 35H99V30H94V35ZM89 35H84V40H89V35ZM89 30V25H84V30H89ZM99 30H104V25H99V30ZM99 35H94V40H99V35ZM114 35V40H119V35H114ZM114 25H119V20H114V25ZM99 25H94V30H99V25ZM99 20V15H94V20H99ZM114 20V25H119V20H114ZM114 10H119V5H114V10ZM99 10V5H94V10H99ZM99 15V20H104V15H99ZM89 15H84V20H89V15ZM89 10V5H84V10H89ZM94 10V15H99V10H94ZM94 5V0H89V5H94ZM119 5H124V0H119V5ZM119 10H114V15H119V10ZM124 10H129V5H124V10ZM124 20V25H129V20H124ZM119 20V15H114V20H119ZM119 25H114V30H119V25ZM124 25H129V20H124V25ZM124 35V40H129V35H124ZM119 35V30H114V35H119ZM119 40V45H124V40H119ZM99 40V35H89V40H99ZM94 30H89V40H94V30ZM94 35V30H84V35H94ZM89 35H99V25H89V35ZM94 30V35H104V30H94ZM99 40H114V30H99V40ZM119 35V25H109V35H119ZM114 20H99V30H114V20ZM104 25V20H94V25H104ZM99 25H114V15H99V25ZM119 20V10H109V20H119ZM114 5H99V15H114V5ZM94 10V15H104V10H94ZM99 10H89V20H99V10ZM94 15V10H84V15H94ZM89 15H94V5H89V15ZM99 10V5H89V10H99ZM94 10H119V0H94V10ZM114 5V10H124V5H114ZM119 15H124V5H119V15ZM119 10V20H129V10H119ZM124 15H119V25H124V15ZM114 20V25H124V20H114ZM119 30H124V20H119V30ZM119 25V35H129V25H119ZM124 30H119V40H124V30ZM114 35V40H124V35H114ZM119 35H94V45H119V35ZM131 40H126V45H131V40ZM131 5V0H126V5H131ZM141 5H146V0H141V5ZM141 20H136V25H141V20ZM156 20V25H161V20H156ZM156 5V0H151V5H156ZM166 5H171V0H166V5ZM166 40V45H171V40H166ZM156 40H151V45H156V40ZM156 25H161V20H156V25ZM141 25V20H136V25H141ZM141 40V45H146V40H141ZM136 40V5H126V40H136ZM131 10H141V0H131V10ZM136 5V20H146V5H136ZM141 25H156V15H141V25ZM161 20V5H151V20H161ZM156 10H166V0H156V10ZM161 5V40H171V5H161ZM166 35H156V45H166V35ZM161 40V25H151V40H161ZM156 20H141V30H156V20ZM136 25V40H146V25H136ZM141 35H131V45H141V35ZM173 40H168V45H173V40ZM173 5V0H168V5H173ZM208 5H213V0H208V5ZM208 10V15H213V10H208ZM183 10V5H178V10H183ZM183 20H178V25H183V20ZM203 20H208V15H203V20ZM203 25V30H208V25H203ZM183 25V20H178V25H183ZM183 35H178V40H183V35ZM208 35H213V30H208V35ZM208 40V45H213V40H208ZM178 40V5H168V40H178ZM173 10H208V0H173V10ZM203 5V10H213V5H203ZM208 5H183V15H208V5ZM178 10V20H188V10H178ZM183 25H203V15H183V25ZM198 20V25H208V20H198ZM203 20H183V30H203V20ZM178 25V35H188V25H178ZM183 40H208V30H183V40ZM203 35V40H213V35H203ZM208 35H173V45H208V35ZM225 40H220V45H225V40ZM225 35H230V30H225V35ZM220 35H215V40H220V35ZM220 30H225V25H220V30ZM215 30H210V35H215V30ZM215 15V10H210V15H215ZM220 15V20H225V15H220ZM220 10V5H215V10H220ZM225 10V15H230V10H225ZM225 5V0H220V5H225ZM245 5H250V0H245V5ZM245 10H240V15H245V10ZM250 10H255V5H250V10ZM250 15V20H255V15H250ZM240 15H235V20H240V15ZM240 10H245V5H240V10ZM230 10V5H225V10H230ZM230 15V20H235V15H230ZM225 15V10H220V15H225ZM225 30H220V35H225V30ZM230 30H235V25H230V30ZM230 35H225V40H230V35ZM240 35V40H245V35H240ZM240 30V25H235V30H240ZM250 30H255V25H250V30ZM250 35V40H255V35H250ZM245 35V30H240V35H245ZM245 40V45H250V40H245ZM230 40V35H220V40H230ZM225 30H220V40H225V30ZM225 35V30H215V35H225ZM220 25H215V35H220V25ZM220 30V15H210V30H220ZM215 20H220V10H215V20ZM225 15V10H215V15H225ZM220 15H225V5H220V15ZM230 10V5H220V10H230ZM225 10H245V0H225V10ZM240 5V10H250V5H240ZM245 15H250V5H245V15ZM245 10V15H255V10H245ZM250 10H240V20H250V10ZM245 15V10H235V15H245ZM240 5H230V15H240V5ZM225 10V15H235V10H225ZM230 10H225V20H230V10ZM220 15V30H230V15H220ZM225 35H230V25H225V35ZM225 30V35H235V30H225ZM230 40H240V30H230V40ZM245 35V30H235V35H245ZM240 35H250V25H240V35ZM245 30V35H255V30H245ZM250 30H245V40H250V30ZM240 35V40H250V35H240ZM245 35H225V45H245V35Z"
      fill="white" mask="url(#path-1-outside-1_4101_784)" />
  </symbol>
</svg>