<svg width="120" height="120" viewBox="0 0 120 120" fill="none" xmlns="http://www.w3.org/2000/svg">
<g clip-path="url(#clip0_988_5140)">
<path d="M17.3755 32.3077H7.5V39.302H17.3755V87.0127H24.3752V32.3077H17.3755Z" fill="#D71A21"/>
<path d="M24.3743 32.126H7.31738V39.4842H17.1923V87.1948H24.5561V32.126H24.3743ZM24.192 86.8305H17.5564V39.1204H7.68148V32.4899H24.192V86.8305Z" fill="#D71A21"/>
<path d="M7.00076 43.5485H0V50.5429H7.00076V87.0127H14.0005V43.5485H7.00076Z" fill="#D71A21"/>
<path d="M57.2979 43.3764C54.1527 43.3764 42.3516 46.185 42.3516 59.1604C42.3516 66.7224 47.21 71.2297 50.9868 73.2257C53.2897 74.3789 56.0693 74.3198 56.0693 74.3198H119.768V66.7314H56.6485C55.6925 66.7314 54.3762 66.5075 53.5307 65.9219C51.9401 64.8226 49.9431 62.768 49.9431 59.1604C49.9431 51.7801 56.9893 51.0023 57.3471 50.968C58.3289 50.9732 61.2765 51.1523 63.2159 53.088C64.6305 54.5 65.3482 56.7109 65.3482 59.66H72.9418C72.9418 54.6241 71.4754 50.6068 68.5833 47.7195C64.6517 43.793 59.836 43.3764 57.2979 43.3764Z" fill="#D71A21"/>
<path d="M56.6482 66.5497C55.7757 66.5497 54.4636 66.3459 53.6361 65.7725C52.0354 64.6636 50.1272 62.6206 50.1272 59.1604C50.1272 51.9263 57.0709 51.1776 57.3668 51.149C58.4581 51.1559 61.2387 51.3687 63.0898 53.2168C64.4691 54.5934 65.1682 56.7615 65.1682 59.6589V59.8405H73.1249V59.6589C73.1249 54.5734 71.6405 50.5128 68.713 47.5901C65.7854 44.6674 61.9489 43.1937 57.2987 43.1937C55.7916 43.1937 52.0227 43.8326 48.5419 46.2521C45.6339 48.2744 42.1689 52.1528 42.1689 59.1604C42.1689 68.0784 48.8532 72.3037 50.9014 73.3867C53.2212 74.5484 55.9575 74.504 56.0732 74.5014H119.95V66.5497H56.6482ZM119.585 74.1376H56.0669C56.0357 74.1376 53.3 74.1814 51.0663 73.063C49.0667 72.007 42.5309 67.8751 42.5309 59.1604C42.5309 52.3102 45.9129 48.5226 48.747 46.552C51.9065 44.3553 55.5902 43.558 57.2955 43.558C61.848 43.558 65.602 45.0017 68.4535 47.8483C71.2748 50.6648 72.7164 54.5797 72.7523 59.4777H65.5259C65.4958 56.5736 64.766 54.3764 63.3461 52.9592C61.3994 51.016 58.504 50.7942 57.3494 50.7863C57.0218 50.8169 49.7626 51.5995 49.7626 59.1604C49.7626 62.7785 51.7564 64.916 53.4284 66.0713C54.3267 66.6923 55.6795 66.9162 56.6487 66.9162H119.585V74.1376ZM97.8373 34.6511H99.317C99.6636 34.6511 99.9183 34.7229 100.079 34.866C100.157 34.9341 100.219 35.0186 100.261 35.1134C100.302 35.2083 100.323 35.3111 100.32 35.4147C100.321 35.5646 100.277 35.7115 100.195 35.8371C100.108 35.9687 99.9804 36.0677 99.8311 36.1185C99.6712 36.1777 99.45 36.2072 99.1674 36.2072H97.8352L97.8373 34.6511ZM97.8373 38.8295V36.7432H98.5534C98.669 36.74 98.7847 36.7474 98.899 36.7654C98.9995 36.7912 99.0949 36.8339 99.1812 36.8916C99.3019 36.9791 99.408 37.0851 99.4956 37.2057C99.6124 37.3547 99.7624 37.5701 99.9432 37.8515L100.563 38.8273H101.339L100.528 37.5511C100.385 37.3214 100.212 37.1114 100.014 36.9264C99.901 36.832 99.7751 36.7534 99.6404 36.693C100.089 36.6307 100.421 36.4853 100.635 36.2569C100.742 36.1442 100.826 36.0116 100.881 35.8666C100.937 35.7216 100.963 35.5672 100.959 35.412C100.962 35.1627 100.895 34.9176 100.766 34.7039C100.648 34.5004 100.465 34.3426 100.246 34.2561C100.028 34.172 99.7108 34.1299 99.2948 34.1299H97.2196V38.8295H97.8373Z" fill="#D71A21"/>
<path d="M94.5371 36.5747C94.537 37.4691 94.8023 38.3434 95.2996 39.0871C95.7968 39.8308 96.5036 40.4104 97.3305 40.7527C98.1574 41.0949 99.0673 41.1844 99.9452 41.0099C100.823 40.8354 101.629 40.4046 102.262 39.7721C102.895 39.1396 103.326 38.3338 103.5 37.4566C103.675 36.5794 103.585 35.6702 103.242 34.844C102.9 34.0178 102.319 33.3117 101.575 32.815C100.831 32.3183 99.9556 32.0534 99.0605 32.0537C97.8612 32.0554 96.7114 32.5323 95.8635 33.3798C95.0155 34.2273 94.5385 35.3763 94.5371 36.5747ZM95.1755 36.5747C95.1758 35.8068 95.404 35.0561 95.8312 34.4177C96.2585 33.7793 96.8656 33.2818 97.5758 32.9882C98.286 32.6946 99.0673 32.6179 99.8211 32.768C100.575 32.9181 101.267 33.2882 101.81 33.8315C102.354 34.3747 102.724 35.0667 102.873 35.82C103.023 36.5733 102.946 37.354 102.651 38.0635C102.357 38.7729 101.859 39.3792 101.22 39.8057C100.581 40.2322 99.8291 40.4597 99.0605 40.4595C98.0299 40.4584 97.0419 40.0487 96.3133 39.3204C95.5847 38.592 95.1751 37.6046 95.1744 36.5747H95.1755Z" fill="#D71A21"/>
<path d="M54.2573 78.3471C52.0712 78.0556 38.2953 75.5358 38.2953 58.5357C38.2953 39.8158 57.5172 39.5185 58.6217 39.5185C59.8868 39.5185 76.5965 40.1559 76.8137 59.6589H84.4074C84.196 37.1117 65.2779 32.0109 58.6196 32.0109C50.8552 32.0109 30.7021 36.7759 30.7021 58.5357C30.7021 78.2203 45.6712 85.051 53.5867 85.9122L53.7886 85.9344L119.987 86.04L120 78.4516L54.2573 78.3471Z" fill="#D71A21"/>
</g>
<defs>
<clipPath id="clip0_988_5140">
<rect width="120" height="55.2058" fill="white" transform="translate(0 32)"/>
</clipPath>
</defs>
</svg>
