<svg width="120" height="39" viewBox="0 0 120 39" fill="none" xmlns="http://www.w3.org/2000/svg">
<path d="M14.779 0.00341797H15.8462C19.5508 0.0832889 23.1951 1.5609 25.8126 4.17668C24.8461 5.1551 23.8595 6.09358 22.9132 7.072C21.4434 5.75413 19.6716 4.73577 17.7388 4.37635C14.8797 3.77732 11.7992 4.31645 9.40323 5.93384C6.78579 7.6311 5.01399 10.5065 4.63144 13.5815C4.20862 16.6166 5.07439 19.8114 7.06767 22.1676C8.98041 24.4639 11.8999 25.9016 14.92 26.0014C17.7388 26.1612 20.6784 25.3025 22.732 23.3457C24.3428 21.9679 25.0877 19.8713 25.3293 17.8346C21.9871 17.8346 18.6448 17.8546 15.3025 17.8346V13.7213H29.3763C30.1011 18.1341 29.0542 23.1061 25.6716 26.261C23.4166 28.4974 20.2958 29.8153 17.1146 30.0748C14.0341 30.3744 10.8529 29.7953 8.11465 28.3177C4.83278 26.5805 2.21534 23.6452 0.926757 20.1908C-0.281292 17.0159 -0.301426 13.4217 0.826086 10.2269C1.85293 7.31161 3.82607 4.73577 6.36298 2.93868C8.79921 1.16155 11.7589 0.183128 14.779 0.00341797Z" fill="#3780FF"/>
<path d="M95.5176 1.04163H99.8263V29.5556C98.3968 29.5556 96.9471 29.5755 95.5176 29.5356C95.5377 20.0509 95.5176 10.5463 95.5176 1.04163Z" fill="#38B137"/>
<path d="M38.9604 10.9259C41.6181 10.4267 44.4973 10.9858 46.6919 12.5633C48.6852 13.961 50.0744 16.1575 50.4972 18.5536C51.0409 21.3291 50.3563 24.3642 48.5442 26.5607C46.5912 29.0167 43.3899 30.3346 40.2691 30.1349C37.4101 29.9751 34.6315 28.5574 32.9403 26.2412C31.0275 23.6853 30.5644 20.171 31.6114 17.1758C32.6584 13.961 35.6181 11.505 38.9604 10.9259ZM39.5644 14.7198C38.4772 14.9993 37.4705 15.6183 36.7456 16.4969C34.7926 18.8132 34.9134 22.5871 37.0678 24.7436C38.296 25.9816 40.1483 26.5607 41.8597 26.2212C43.4503 25.9417 44.8396 24.8834 45.6047 23.4856C46.9335 21.1095 46.551 17.8347 44.5174 15.9777C43.2087 14.7797 41.2959 14.2805 39.5644 14.7198Z" fill="#FA3913"/>
<path d="M60.3027 10.9259C63.3429 10.3469 66.6651 11.1855 68.9402 13.3021C72.6449 16.5968 73.0476 22.7668 69.8865 26.5607C67.9738 28.9568 64.8731 30.2747 61.8128 30.1349C58.8933 30.055 56.0141 28.6174 54.2826 26.2412C52.3296 23.6254 51.9068 20.0312 53.0141 16.9762C54.1215 13.8612 57.0208 11.485 60.3027 10.9259ZM60.9067 14.7198C59.8195 14.9994 58.8128 15.6184 58.0879 16.477C56.1551 18.7533 56.2356 22.4673 58.3094 24.6438C59.5376 25.9417 61.4503 26.5807 63.2221 26.2212C64.7926 25.9217 66.202 24.8834 66.9671 23.4857C68.2758 21.0895 67.8933 17.8148 65.8396 15.9578C64.5309 14.7598 62.6181 14.2805 60.9067 14.7198Z" fill="#FCBD06"/>
<path d="M78.4028 12.0837C80.7182 10.646 83.7987 10.2467 86.2954 11.4847C87.0806 11.8241 87.7249 12.4032 88.3491 12.9823C88.3692 12.4431 88.3491 11.884 88.3692 11.3249C89.7182 11.3449 91.0672 11.3249 92.4363 11.3449V28.9565C92.4162 31.6122 91.7316 34.4276 89.7987 36.3645C87.6846 38.501 84.443 39.16 81.5236 38.7207C78.4028 38.2614 75.6847 36.0051 74.4766 33.1497C75.6847 32.5706 76.9531 32.1114 78.2014 31.5722C78.9061 33.2096 80.3357 34.6073 82.1276 34.9268C83.9195 35.2463 85.9934 34.807 87.1611 33.3294C88.4095 31.8118 88.4095 29.7352 88.3491 27.8782C87.4229 28.7768 86.3558 29.5755 85.0672 29.875C82.2685 30.6537 79.188 29.6953 77.0337 27.8183C74.8592 25.9413 73.5706 23.046 73.6914 20.1707C73.7518 16.9159 75.6041 13.781 78.4028 12.0837ZM82.5706 14.6396C81.3424 14.8393 80.1947 15.5182 79.4095 16.4567C77.5169 18.693 77.5169 22.2673 79.4296 24.4637C80.5169 25.7616 82.2685 26.4805 83.9598 26.3008C85.5504 26.141 87.0202 25.1426 87.8054 23.7648C89.1343 21.4286 88.9128 18.2537 87.1209 16.217C86.0135 14.9591 84.2417 14.3401 82.5706 14.6396Z" fill="#3780FF"/>
<path d="M105 13.1024C107.416 10.866 111.141 10.1073 114.242 11.2854C117.181 12.3836 119.054 15.1591 120 18.0145C115.631 19.8116 111.282 21.5887 106.913 23.3858C107.517 24.524 108.443 25.5623 109.691 25.9816C111.443 26.6006 113.537 26.381 115.007 25.2228C115.591 24.7836 116.054 24.2045 116.497 23.6454C117.604 24.3842 118.711 25.103 119.819 25.8418C118.248 28.1781 115.611 29.8154 112.772 30.075C109.631 30.4544 106.289 29.2563 104.255 26.8203C100.913 22.9865 101.235 16.5568 105 13.1024ZM107.154 16.7965C106.47 17.7749 106.188 18.9729 106.208 20.151C109.128 18.953 112.047 17.7549 114.966 16.5369C114.483 15.4187 113.315 14.7398 112.128 14.5601C110.215 14.2206 108.221 15.239 107.154 16.7965Z" fill="#FA3913"/>
</svg>
