<svg width="448" height="45" viewBox="0 0 448 45" fill="none" xmlns="http://www.w3.org/2000/svg">
<mask id="path-1-outside-1_591_8635" maskUnits="userSpaceOnUse" x="0.626953" y="0.848633" width="448" height="44" fill="black">
<rect fill="white" x="0.626953" y="0.848633" width="448" height="44"/>
<path d="M1.62695 43.8486V1.84863H13.627V19.8486H19.627V13.8486H25.627V7.84863H31.627V1.84863H43.627V7.84863H37.627V13.8486H31.627V19.8486H25.627V25.8486H31.627V31.8486H37.627V37.8486H43.627V43.8486H25.627V37.8486H19.627V31.8486H13.627V43.8486H1.62695ZM52.027 43.8486V13.8486H58.027V7.84863H64.027V1.84863H82.027V7.84863H88.027V13.8486H94.027V43.8486H82.027V31.8486H64.027V43.8486H52.027ZM64.027 25.8486H82.027V13.8486H76.027V7.84863H70.027V13.8486H64.027V25.8486ZM108.427 43.8486V37.8486H102.427V31.8486H114.427V37.8486H132.427V25.8486H108.427V19.8486H102.427V7.84863H108.427V1.84863H138.427V7.84863H144.427V13.8486H132.427V7.84863H114.427V19.8486H138.427V25.8486H144.427V37.8486H138.427V43.8486H108.427ZM152.827 43.8486V1.84863H188.827V7.84863H194.827V25.8486H188.827V31.8486H164.827V43.8486H152.827ZM164.827 25.8486H182.827V7.84863H164.827V25.8486ZM203.227 43.8486V1.84863H245.227V7.84863H215.227V19.8486H239.227V25.8486H215.227V37.8486H245.227V43.8486H203.227ZM253.627 43.8486V1.84863H289.627V7.84863H295.627V25.8486H283.627V31.8486H289.627V37.8486H295.627V43.8486H277.627V37.8486H271.627V31.8486H265.627V43.8486H253.627ZM265.627 25.8486H277.627V19.8486H283.627V7.84863H265.627V25.8486ZM310.027 43.8486V37.8486H304.027V31.8486H316.027V37.8486H334.027V25.8486H310.027V19.8486H304.027V7.84863H310.027V1.84863H340.027V7.84863H346.027V13.8486H334.027V7.84863H316.027V19.8486H340.027V25.8486H346.027V37.8486H340.027V43.8486H310.027ZM354.427 43.8486V1.84863H366.427V19.8486H372.427V13.8486H378.427V7.84863H384.427V1.84863H396.427V7.84863H390.427V13.8486H384.427V19.8486H378.427V25.8486H384.427V31.8486H390.427V37.8486H396.427V43.8486H378.427V37.8486H372.427V31.8486H366.427V43.8486H354.427ZM422.827 43.8486V25.8486H416.827V19.8486H410.827V1.84863H422.827V19.8486H434.827V1.84863H446.827V19.8486H440.827V25.8486H434.827V43.8486H422.827Z"/>
</mask>
<path d="M1.62695 43.8486H0.626953V44.8486H1.62695V43.8486ZM1.62695 1.84863V0.848633H0.626953V1.84863H1.62695ZM13.627 1.84863H14.627V0.848633H13.627V1.84863ZM13.627 19.8486H12.627V20.8486H13.627V19.8486ZM19.627 19.8486V20.8486H20.627V19.8486H19.627ZM19.627 13.8486V12.8486H18.627V13.8486H19.627ZM25.627 13.8486V14.8486H26.627V13.8486H25.627ZM25.627 7.84863V6.84863H24.627V7.84863H25.627ZM31.627 7.84863V8.84863H32.627V7.84863H31.627ZM31.627 1.84863V0.848633H30.627V1.84863H31.627ZM43.627 1.84863H44.627V0.848633H43.627V1.84863ZM43.627 7.84863V8.84863H44.627V7.84863H43.627ZM37.627 7.84863V6.84863H36.627V7.84863H37.627ZM37.627 13.8486V14.8486H38.627V13.8486H37.627ZM31.627 13.8486V12.8486H30.627V13.8486H31.627ZM31.627 19.8486V20.8486H32.627V19.8486H31.627ZM25.627 19.8486V18.8486H24.627V19.8486H25.627ZM25.627 25.8486H24.627V26.8486H25.627V25.8486ZM31.627 25.8486H32.627V24.8486H31.627V25.8486ZM31.627 31.8486H30.627V32.8486H31.627V31.8486ZM37.627 31.8486H38.627V30.8486H37.627V31.8486ZM37.627 37.8486H36.627V38.8486H37.627V37.8486ZM43.627 37.8486H44.627V36.8486H43.627V37.8486ZM43.627 43.8486V44.8486H44.627V43.8486H43.627ZM25.627 43.8486H24.627V44.8486H25.627V43.8486ZM25.627 37.8486H26.627V36.8486H25.627V37.8486ZM19.627 37.8486H18.627V38.8486H19.627V37.8486ZM19.627 31.8486H20.627V30.8486H19.627V31.8486ZM13.627 31.8486V30.8486H12.627V31.8486H13.627ZM13.627 43.8486V44.8486H14.627V43.8486H13.627ZM2.62695 43.8486V1.84863H0.626953V43.8486H2.62695ZM1.62695 2.84863H13.627V0.848633H1.62695V2.84863ZM12.627 1.84863V19.8486H14.627V1.84863H12.627ZM13.627 20.8486H19.627V18.8486H13.627V20.8486ZM20.627 19.8486V13.8486H18.627V19.8486H20.627ZM19.627 14.8486H25.627V12.8486H19.627V14.8486ZM26.627 13.8486V7.84863H24.627V13.8486H26.627ZM25.627 8.84863H31.627V6.84863H25.627V8.84863ZM32.627 7.84863V1.84863H30.627V7.84863H32.627ZM31.627 2.84863H43.627V0.848633H31.627V2.84863ZM42.627 1.84863V7.84863H44.627V1.84863H42.627ZM43.627 6.84863H37.627V8.84863H43.627V6.84863ZM36.627 7.84863V13.8486H38.627V7.84863H36.627ZM37.627 12.8486H31.627V14.8486H37.627V12.8486ZM30.627 13.8486V19.8486H32.627V13.8486H30.627ZM31.627 18.8486H25.627V20.8486H31.627V18.8486ZM24.627 19.8486V25.8486H26.627V19.8486H24.627ZM25.627 26.8486H31.627V24.8486H25.627V26.8486ZM30.627 25.8486V31.8486H32.627V25.8486H30.627ZM31.627 32.8486H37.627V30.8486H31.627V32.8486ZM36.627 31.8486V37.8486H38.627V31.8486H36.627ZM37.627 38.8486H43.627V36.8486H37.627V38.8486ZM42.627 37.8486V43.8486H44.627V37.8486H42.627ZM43.627 42.8486H25.627V44.8486H43.627V42.8486ZM26.627 43.8486V37.8486H24.627V43.8486H26.627ZM25.627 36.8486H19.627V38.8486H25.627V36.8486ZM20.627 37.8486V31.8486H18.627V37.8486H20.627ZM19.627 30.8486H13.627V32.8486H19.627V30.8486ZM12.627 31.8486V43.8486H14.627V31.8486H12.627ZM13.627 42.8486H1.62695V44.8486H13.627V42.8486ZM52.027 43.8486H51.027V44.8486H52.027V43.8486ZM52.027 13.8486V12.8486H51.027V13.8486H52.027ZM58.027 13.8486V14.8486H59.027V13.8486H58.027ZM58.027 7.84863V6.84863H57.027V7.84863H58.027ZM64.027 7.84863V8.84863H65.027V7.84863H64.027ZM64.027 1.84863V0.848633H63.027V1.84863H64.027ZM82.027 1.84863H83.027V0.848633H82.027V1.84863ZM82.027 7.84863H81.027V8.84863H82.027V7.84863ZM88.027 7.84863H89.027V6.84863H88.027V7.84863ZM88.027 13.8486H87.027V14.8486H88.027V13.8486ZM94.027 13.8486H95.027V12.8486H94.027V13.8486ZM94.027 43.8486V44.8486H95.027V43.8486H94.027ZM82.027 43.8486H81.027V44.8486H82.027V43.8486ZM82.027 31.8486H83.027V30.8486H82.027V31.8486ZM64.027 31.8486V30.8486H63.027V31.8486H64.027ZM64.027 43.8486V44.8486H65.027V43.8486H64.027ZM64.027 25.8486H63.027V26.8486H64.027V25.8486ZM82.027 25.8486V26.8486H83.027V25.8486H82.027ZM82.027 13.8486H83.027V12.8486H82.027V13.8486ZM76.027 13.8486H75.027V14.8486H76.027V13.8486ZM76.027 7.84863H77.027V6.84863H76.027V7.84863ZM70.027 7.84863V6.84863H69.027V7.84863H70.027ZM70.027 13.8486V14.8486H71.027V13.8486H70.027ZM64.027 13.8486V12.8486H63.027V13.8486H64.027ZM53.027 43.8486V13.8486H51.027V43.8486H53.027ZM52.027 14.8486H58.027V12.8486H52.027V14.8486ZM59.027 13.8486V7.84863H57.027V13.8486H59.027ZM58.027 8.84863H64.027V6.84863H58.027V8.84863ZM65.027 7.84863V1.84863H63.027V7.84863H65.027ZM64.027 2.84863H82.027V0.848633H64.027V2.84863ZM81.027 1.84863V7.84863H83.027V1.84863H81.027ZM82.027 8.84863H88.027V6.84863H82.027V8.84863ZM87.027 7.84863V13.8486H89.027V7.84863H87.027ZM88.027 14.8486H94.027V12.8486H88.027V14.8486ZM93.027 13.8486V43.8486H95.027V13.8486H93.027ZM94.027 42.8486H82.027V44.8486H94.027V42.8486ZM83.027 43.8486V31.8486H81.027V43.8486H83.027ZM82.027 30.8486H64.027V32.8486H82.027V30.8486ZM63.027 31.8486V43.8486H65.027V31.8486H63.027ZM64.027 42.8486H52.027V44.8486H64.027V42.8486ZM64.027 26.8486H82.027V24.8486H64.027V26.8486ZM83.027 25.8486V13.8486H81.027V25.8486H83.027ZM82.027 12.8486H76.027V14.8486H82.027V12.8486ZM77.027 13.8486V7.84863H75.027V13.8486H77.027ZM76.027 6.84863H70.027V8.84863H76.027V6.84863ZM69.027 7.84863V13.8486H71.027V7.84863H69.027ZM70.027 12.8486H64.027V14.8486H70.027V12.8486ZM63.027 13.8486V25.8486H65.027V13.8486H63.027ZM108.427 43.8486H107.427V44.8486H108.427V43.8486ZM108.427 37.8486H109.427V36.8486H108.427V37.8486ZM102.427 37.8486H101.427V38.8486H102.427V37.8486ZM102.427 31.8486V30.8486H101.427V31.8486H102.427ZM114.427 31.8486H115.427V30.8486H114.427V31.8486ZM114.427 37.8486H113.427V38.8486H114.427V37.8486ZM132.427 37.8486V38.8486H133.427V37.8486H132.427ZM132.427 25.8486H133.427V24.8486H132.427V25.8486ZM108.427 25.8486H107.427V26.8486H108.427V25.8486ZM108.427 19.8486H109.427V18.8486H108.427V19.8486ZM102.427 19.8486H101.427V20.8486H102.427V19.8486ZM102.427 7.84863V6.84863H101.427V7.84863H102.427ZM108.427 7.84863V8.84863H109.427V7.84863H108.427ZM108.427 1.84863V0.848633H107.427V1.84863H108.427ZM138.427 1.84863H139.427V0.848633H138.427V1.84863ZM138.427 7.84863H137.427V8.84863H138.427V7.84863ZM144.427 7.84863H145.427V6.84863H144.427V7.84863ZM144.427 13.8486V14.8486H145.427V13.8486H144.427ZM132.427 13.8486H131.427V14.8486H132.427V13.8486ZM132.427 7.84863H133.427V6.84863H132.427V7.84863ZM114.427 7.84863V6.84863H113.427V7.84863H114.427ZM114.427 19.8486H113.427V20.8486H114.427V19.8486ZM138.427 19.8486H139.427V18.8486H138.427V19.8486ZM138.427 25.8486H137.427V26.8486H138.427V25.8486ZM144.427 25.8486H145.427V24.8486H144.427V25.8486ZM144.427 37.8486V38.8486H145.427V37.8486H144.427ZM138.427 37.8486V36.8486H137.427V37.8486H138.427ZM138.427 43.8486V44.8486H139.427V43.8486H138.427ZM109.427 43.8486V37.8486H107.427V43.8486H109.427ZM108.427 36.8486H102.427V38.8486H108.427V36.8486ZM103.427 37.8486V31.8486H101.427V37.8486H103.427ZM102.427 32.8486H114.427V30.8486H102.427V32.8486ZM113.427 31.8486V37.8486H115.427V31.8486H113.427ZM114.427 38.8486H132.427V36.8486H114.427V38.8486ZM133.427 37.8486V25.8486H131.427V37.8486H133.427ZM132.427 24.8486H108.427V26.8486H132.427V24.8486ZM109.427 25.8486V19.8486H107.427V25.8486H109.427ZM108.427 18.8486H102.427V20.8486H108.427V18.8486ZM103.427 19.8486V7.84863H101.427V19.8486H103.427ZM102.427 8.84863H108.427V6.84863H102.427V8.84863ZM109.427 7.84863V1.84863H107.427V7.84863H109.427ZM108.427 2.84863H138.427V0.848633H108.427V2.84863ZM137.427 1.84863V7.84863H139.427V1.84863H137.427ZM138.427 8.84863H144.427V6.84863H138.427V8.84863ZM143.427 7.84863V13.8486H145.427V7.84863H143.427ZM144.427 12.8486H132.427V14.8486H144.427V12.8486ZM133.427 13.8486V7.84863H131.427V13.8486H133.427ZM132.427 6.84863H114.427V8.84863H132.427V6.84863ZM113.427 7.84863V19.8486H115.427V7.84863H113.427ZM114.427 20.8486H138.427V18.8486H114.427V20.8486ZM137.427 19.8486V25.8486H139.427V19.8486H137.427ZM138.427 26.8486H144.427V24.8486H138.427V26.8486ZM143.427 25.8486V37.8486H145.427V25.8486H143.427ZM144.427 36.8486H138.427V38.8486H144.427V36.8486ZM137.427 37.8486V43.8486H139.427V37.8486H137.427ZM138.427 42.8486H108.427V44.8486H138.427V42.8486ZM152.827 43.8486H151.827V44.8486H152.827V43.8486ZM152.827 1.84863V0.848633H151.827V1.84863H152.827ZM188.827 1.84863H189.827V0.848633H188.827V1.84863ZM188.827 7.84863H187.827V8.84863H188.827V7.84863ZM194.827 7.84863H195.827V6.84863H194.827V7.84863ZM194.827 25.8486V26.8486H195.827V25.8486H194.827ZM188.827 25.8486V24.8486H187.827V25.8486H188.827ZM188.827 31.8486V32.8486H189.827V31.8486H188.827ZM164.827 31.8486V30.8486H163.827V31.8486H164.827ZM164.827 43.8486V44.8486H165.827V43.8486H164.827ZM164.827 25.8486H163.827V26.8486H164.827V25.8486ZM182.827 25.8486V26.8486H183.827V25.8486H182.827ZM182.827 7.84863H183.827V6.84863H182.827V7.84863ZM164.827 7.84863V6.84863H163.827V7.84863H164.827ZM153.827 43.8486V1.84863H151.827V43.8486H153.827ZM152.827 2.84863H188.827V0.848633H152.827V2.84863ZM187.827 1.84863V7.84863H189.827V1.84863H187.827ZM188.827 8.84863H194.827V6.84863H188.827V8.84863ZM193.827 7.84863V25.8486H195.827V7.84863H193.827ZM194.827 24.8486H188.827V26.8486H194.827V24.8486ZM187.827 25.8486V31.8486H189.827V25.8486H187.827ZM188.827 30.8486H164.827V32.8486H188.827V30.8486ZM163.827 31.8486V43.8486H165.827V31.8486H163.827ZM164.827 42.8486H152.827V44.8486H164.827V42.8486ZM164.827 26.8486H182.827V24.8486H164.827V26.8486ZM183.827 25.8486V7.84863H181.827V25.8486H183.827ZM182.827 6.84863H164.827V8.84863H182.827V6.84863ZM163.827 7.84863V25.8486H165.827V7.84863H163.827ZM203.227 43.8486H202.227V44.8486H203.227V43.8486ZM203.227 1.84863V0.848633H202.227V1.84863H203.227ZM245.227 1.84863H246.227V0.848633H245.227V1.84863ZM245.227 7.84863V8.84863H246.227V7.84863H245.227ZM215.227 7.84863V6.84863H214.227V7.84863H215.227ZM215.227 19.8486H214.227V20.8486H215.227V19.8486ZM239.227 19.8486H240.227V18.8486H239.227V19.8486ZM239.227 25.8486V26.8486H240.227V25.8486H239.227ZM215.227 25.8486V24.8486H214.227V25.8486H215.227ZM215.227 37.8486H214.227V38.8486H215.227V37.8486ZM245.227 37.8486H246.227V36.8486H245.227V37.8486ZM245.227 43.8486V44.8486H246.227V43.8486H245.227ZM204.227 43.8486V1.84863H202.227V43.8486H204.227ZM203.227 2.84863H245.227V0.848633H203.227V2.84863ZM244.227 1.84863V7.84863H246.227V1.84863H244.227ZM245.227 6.84863H215.227V8.84863H245.227V6.84863ZM214.227 7.84863V19.8486H216.227V7.84863H214.227ZM215.227 20.8486H239.227V18.8486H215.227V20.8486ZM238.227 19.8486V25.8486H240.227V19.8486H238.227ZM239.227 24.8486H215.227V26.8486H239.227V24.8486ZM214.227 25.8486V37.8486H216.227V25.8486H214.227ZM215.227 38.8486H245.227V36.8486H215.227V38.8486ZM244.227 37.8486V43.8486H246.227V37.8486H244.227ZM245.227 42.8486H203.227V44.8486H245.227V42.8486ZM253.627 43.8486H252.627V44.8486H253.627V43.8486ZM253.627 1.84863V0.848633H252.627V1.84863H253.627ZM289.627 1.84863H290.627V0.848633H289.627V1.84863ZM289.627 7.84863H288.627V8.84863H289.627V7.84863ZM295.627 7.84863H296.627V6.84863H295.627V7.84863ZM295.627 25.8486V26.8486H296.627V25.8486H295.627ZM283.627 25.8486V24.8486H282.627V25.8486H283.627ZM283.627 31.8486H282.627V32.8486H283.627V31.8486ZM289.627 31.8486H290.627V30.8486H289.627V31.8486ZM289.627 37.8486H288.627V38.8486H289.627V37.8486ZM295.627 37.8486H296.627V36.8486H295.627V37.8486ZM295.627 43.8486V44.8486H296.627V43.8486H295.627ZM277.627 43.8486H276.627V44.8486H277.627V43.8486ZM277.627 37.8486H278.627V36.8486H277.627V37.8486ZM271.627 37.8486H270.627V38.8486H271.627V37.8486ZM271.627 31.8486H272.627V30.8486H271.627V31.8486ZM265.627 31.8486V30.8486H264.627V31.8486H265.627ZM265.627 43.8486V44.8486H266.627V43.8486H265.627ZM265.627 25.8486H264.627V26.8486H265.627V25.8486ZM277.627 25.8486V26.8486H278.627V25.8486H277.627ZM277.627 19.8486V18.8486H276.627V19.8486H277.627ZM283.627 19.8486V20.8486H284.627V19.8486H283.627ZM283.627 7.84863H284.627V6.84863H283.627V7.84863ZM265.627 7.84863V6.84863H264.627V7.84863H265.627ZM254.627 43.8486V1.84863H252.627V43.8486H254.627ZM253.627 2.84863H289.627V0.848633H253.627V2.84863ZM288.627 1.84863V7.84863H290.627V1.84863H288.627ZM289.627 8.84863H295.627V6.84863H289.627V8.84863ZM294.627 7.84863V25.8486H296.627V7.84863H294.627ZM295.627 24.8486H283.627V26.8486H295.627V24.8486ZM282.627 25.8486V31.8486H284.627V25.8486H282.627ZM283.627 32.8486H289.627V30.8486H283.627V32.8486ZM288.627 31.8486V37.8486H290.627V31.8486H288.627ZM289.627 38.8486H295.627V36.8486H289.627V38.8486ZM294.627 37.8486V43.8486H296.627V37.8486H294.627ZM295.627 42.8486H277.627V44.8486H295.627V42.8486ZM278.627 43.8486V37.8486H276.627V43.8486H278.627ZM277.627 36.8486H271.627V38.8486H277.627V36.8486ZM272.627 37.8486V31.8486H270.627V37.8486H272.627ZM271.627 30.8486H265.627V32.8486H271.627V30.8486ZM264.627 31.8486V43.8486H266.627V31.8486H264.627ZM265.627 42.8486H253.627V44.8486H265.627V42.8486ZM265.627 26.8486H277.627V24.8486H265.627V26.8486ZM278.627 25.8486V19.8486H276.627V25.8486H278.627ZM277.627 20.8486H283.627V18.8486H277.627V20.8486ZM284.627 19.8486V7.84863H282.627V19.8486H284.627ZM283.627 6.84863H265.627V8.84863H283.627V6.84863ZM264.627 7.84863V25.8486H266.627V7.84863H264.627ZM310.027 43.8486H309.027V44.8486H310.027V43.8486ZM310.027 37.8486H311.027V36.8486H310.027V37.8486ZM304.027 37.8486H303.027V38.8486H304.027V37.8486ZM304.027 31.8486V30.8486H303.027V31.8486H304.027ZM316.027 31.8486H317.027V30.8486H316.027V31.8486ZM316.027 37.8486H315.027V38.8486H316.027V37.8486ZM334.027 37.8486V38.8486H335.027V37.8486H334.027ZM334.027 25.8486H335.027V24.8486H334.027V25.8486ZM310.027 25.8486H309.027V26.8486H310.027V25.8486ZM310.027 19.8486H311.027V18.8486H310.027V19.8486ZM304.027 19.8486H303.027V20.8486H304.027V19.8486ZM304.027 7.84863V6.84863H303.027V7.84863H304.027ZM310.027 7.84863V8.84863H311.027V7.84863H310.027ZM310.027 1.84863V0.848633H309.027V1.84863H310.027ZM340.027 1.84863H341.027V0.848633H340.027V1.84863ZM340.027 7.84863H339.027V8.84863H340.027V7.84863ZM346.027 7.84863H347.027V6.84863H346.027V7.84863ZM346.027 13.8486V14.8486H347.027V13.8486H346.027ZM334.027 13.8486H333.027V14.8486H334.027V13.8486ZM334.027 7.84863H335.027V6.84863H334.027V7.84863ZM316.027 7.84863V6.84863H315.027V7.84863H316.027ZM316.027 19.8486H315.027V20.8486H316.027V19.8486ZM340.027 19.8486H341.027V18.8486H340.027V19.8486ZM340.027 25.8486H339.027V26.8486H340.027V25.8486ZM346.027 25.8486H347.027V24.8486H346.027V25.8486ZM346.027 37.8486V38.8486H347.027V37.8486H346.027ZM340.027 37.8486V36.8486H339.027V37.8486H340.027ZM340.027 43.8486V44.8486H341.027V43.8486H340.027ZM311.027 43.8486V37.8486H309.027V43.8486H311.027ZM310.027 36.8486H304.027V38.8486H310.027V36.8486ZM305.027 37.8486V31.8486H303.027V37.8486H305.027ZM304.027 32.8486H316.027V30.8486H304.027V32.8486ZM315.027 31.8486V37.8486H317.027V31.8486H315.027ZM316.027 38.8486H334.027V36.8486H316.027V38.8486ZM335.027 37.8486V25.8486H333.027V37.8486H335.027ZM334.027 24.8486H310.027V26.8486H334.027V24.8486ZM311.027 25.8486V19.8486H309.027V25.8486H311.027ZM310.027 18.8486H304.027V20.8486H310.027V18.8486ZM305.027 19.8486V7.84863H303.027V19.8486H305.027ZM304.027 8.84863H310.027V6.84863H304.027V8.84863ZM311.027 7.84863V1.84863H309.027V7.84863H311.027ZM310.027 2.84863H340.027V0.848633H310.027V2.84863ZM339.027 1.84863V7.84863H341.027V1.84863H339.027ZM340.027 8.84863H346.027V6.84863H340.027V8.84863ZM345.027 7.84863V13.8486H347.027V7.84863H345.027ZM346.027 12.8486H334.027V14.8486H346.027V12.8486ZM335.027 13.8486V7.84863H333.027V13.8486H335.027ZM334.027 6.84863H316.027V8.84863H334.027V6.84863ZM315.027 7.84863V19.8486H317.027V7.84863H315.027ZM316.027 20.8486H340.027V18.8486H316.027V20.8486ZM339.027 19.8486V25.8486H341.027V19.8486H339.027ZM340.027 26.8486H346.027V24.8486H340.027V26.8486ZM345.027 25.8486V37.8486H347.027V25.8486H345.027ZM346.027 36.8486H340.027V38.8486H346.027V36.8486ZM339.027 37.8486V43.8486H341.027V37.8486H339.027ZM340.027 42.8486H310.027V44.8486H340.027V42.8486ZM354.427 43.8486H353.427V44.8486H354.427V43.8486ZM354.427 1.84863V0.848633H353.427V1.84863H354.427ZM366.427 1.84863H367.427V0.848633H366.427V1.84863ZM366.427 19.8486H365.427V20.8486H366.427V19.8486ZM372.427 19.8486V20.8486H373.427V19.8486H372.427ZM372.427 13.8486V12.8486H371.427V13.8486H372.427ZM378.427 13.8486V14.8486H379.427V13.8486H378.427ZM378.427 7.84863V6.84863H377.427V7.84863H378.427ZM384.427 7.84863V8.84863H385.427V7.84863H384.427ZM384.427 1.84863V0.848633H383.427V1.84863H384.427ZM396.427 1.84863H397.427V0.848633H396.427V1.84863ZM396.427 7.84863V8.84863H397.427V7.84863H396.427ZM390.427 7.84863V6.84863H389.427V7.84863H390.427ZM390.427 13.8486V14.8486H391.427V13.8486H390.427ZM384.427 13.8486V12.8486H383.427V13.8486H384.427ZM384.427 19.8486V20.8486H385.427V19.8486H384.427ZM378.427 19.8486V18.8486H377.427V19.8486H378.427ZM378.427 25.8486H377.427V26.8486H378.427V25.8486ZM384.427 25.8486H385.427V24.8486H384.427V25.8486ZM384.427 31.8486H383.427V32.8486H384.427V31.8486ZM390.427 31.8486H391.427V30.8486H390.427V31.8486ZM390.427 37.8486H389.427V38.8486H390.427V37.8486ZM396.427 37.8486H397.427V36.8486H396.427V37.8486ZM396.427 43.8486V44.8486H397.427V43.8486H396.427ZM378.427 43.8486H377.427V44.8486H378.427V43.8486ZM378.427 37.8486H379.427V36.8486H378.427V37.8486ZM372.427 37.8486H371.427V38.8486H372.427V37.8486ZM372.427 31.8486H373.427V30.8486H372.427V31.8486ZM366.427 31.8486V30.8486H365.427V31.8486H366.427ZM366.427 43.8486V44.8486H367.427V43.8486H366.427ZM355.427 43.8486V1.84863H353.427V43.8486H355.427ZM354.427 2.84863H366.427V0.848633H354.427V2.84863ZM365.427 1.84863V19.8486H367.427V1.84863H365.427ZM366.427 20.8486H372.427V18.8486H366.427V20.8486ZM373.427 19.8486V13.8486H371.427V19.8486H373.427ZM372.427 14.8486H378.427V12.8486H372.427V14.8486ZM379.427 13.8486V7.84863H377.427V13.8486H379.427ZM378.427 8.84863H384.427V6.84863H378.427V8.84863ZM385.427 7.84863V1.84863H383.427V7.84863H385.427ZM384.427 2.84863H396.427V0.848633H384.427V2.84863ZM395.427 1.84863V7.84863H397.427V1.84863H395.427ZM396.427 6.84863H390.427V8.84863H396.427V6.84863ZM389.427 7.84863V13.8486H391.427V7.84863H389.427ZM390.427 12.8486H384.427V14.8486H390.427V12.8486ZM383.427 13.8486V19.8486H385.427V13.8486H383.427ZM384.427 18.8486H378.427V20.8486H384.427V18.8486ZM377.427 19.8486V25.8486H379.427V19.8486H377.427ZM378.427 26.8486H384.427V24.8486H378.427V26.8486ZM383.427 25.8486V31.8486H385.427V25.8486H383.427ZM384.427 32.8486H390.427V30.8486H384.427V32.8486ZM389.427 31.8486V37.8486H391.427V31.8486H389.427ZM390.427 38.8486H396.427V36.8486H390.427V38.8486ZM395.427 37.8486V43.8486H397.427V37.8486H395.427ZM396.427 42.8486H378.427V44.8486H396.427V42.8486ZM379.427 43.8486V37.8486H377.427V43.8486H379.427ZM378.427 36.8486H372.427V38.8486H378.427V36.8486ZM373.427 37.8486V31.8486H371.427V37.8486H373.427ZM372.427 30.8486H366.427V32.8486H372.427V30.8486ZM365.427 31.8486V43.8486H367.427V31.8486H365.427ZM366.427 42.8486H354.427V44.8486H366.427V42.8486ZM422.827 43.8486H421.827V44.8486H422.827V43.8486ZM422.827 25.8486H423.827V24.8486H422.827V25.8486ZM416.827 25.8486H415.827V26.8486H416.827V25.8486ZM416.827 19.8486H417.827V18.8486H416.827V19.8486ZM410.827 19.8486H409.827V20.8486H410.827V19.8486ZM410.827 1.84863V0.848633H409.827V1.84863H410.827ZM422.827 1.84863H423.827V0.848633H422.827V1.84863ZM422.827 19.8486H421.827V20.8486H422.827V19.8486ZM434.827 19.8486V20.8486H435.827V19.8486H434.827ZM434.827 1.84863V0.848633H433.827V1.84863H434.827ZM446.827 1.84863H447.827V0.848633H446.827V1.84863ZM446.827 19.8486V20.8486H447.827V19.8486H446.827ZM440.827 19.8486V18.8486H439.827V19.8486H440.827ZM440.827 25.8486V26.8486H441.827V25.8486H440.827ZM434.827 25.8486V24.8486H433.827V25.8486H434.827ZM434.827 43.8486V44.8486H435.827V43.8486H434.827ZM423.827 43.8486V25.8486H421.827V43.8486H423.827ZM422.827 24.8486H416.827V26.8486H422.827V24.8486ZM417.827 25.8486V19.8486H415.827V25.8486H417.827ZM416.827 18.8486H410.827V20.8486H416.827V18.8486ZM411.827 19.8486V1.84863H409.827V19.8486H411.827ZM410.827 2.84863H422.827V0.848633H410.827V2.84863ZM421.827 1.84863V19.8486H423.827V1.84863H421.827ZM422.827 20.8486H434.827V18.8486H422.827V20.8486ZM435.827 19.8486V1.84863H433.827V19.8486H435.827ZM434.827 2.84863H446.827V0.848633H434.827V2.84863ZM445.827 1.84863V19.8486H447.827V1.84863H445.827ZM446.827 18.8486H440.827V20.8486H446.827V18.8486ZM439.827 19.8486V25.8486H441.827V19.8486H439.827ZM440.827 24.8486H434.827V26.8486H440.827V24.8486ZM433.827 25.8486V43.8486H435.827V25.8486H433.827ZM434.827 42.8486H422.827V44.8486H434.827V42.8486Z" fill="#2D2650" mask="url(#path-1-outside-1_591_8635)"/>
</svg>
