<svg width="229" height="104" viewBox="0 0 229 104" fill="none" xmlns="http://www.w3.org/2000/svg">
<path d="M135.512 53.5153H121.634C121.634 41.8486 114.973 35.7375 107.201 35.7375C84.9973 35.7375 87.2177 66.8486 107.201 66.8486H226.548V79.6264C195.647 79.8116 128.522 79.6264 107.201 79.6264C81.1116 79.6264 77.781 55.182 77.781 53.5153C77.781 50.7375 77.781 22.4042 107.201 22.4042C130.738 22.4042 135.882 43.1449 135.512 53.5153Z" stroke="#2B2A28" stroke-width="3"/>
<path d="M157.16 53.5153H144.393C142.728 25.7375 121.634 14.0709 107.201 14.0709C91.1061 14.0709 67.6641 25.765 68.8994 53.5153C69.6908 71.2931 85.5551 87.9597 107.201 87.9597H226.548V101.849H107.201C70.0123 101.849 56.132 69.6264 55.5769 53.5153C55.2069 34.4412 70.009 1.84863 107.201 1.84863C144.394 1.84863 158.828 36.2931 157.16 53.5153Z" stroke="#2B2A28" stroke-width="3"/>
</svg>
