<svg width="744" height="51" viewBox="0 0 744 51" fill="none" xmlns="http://www.w3.org/2000/svg">
<mask id="path-1-outside-1_591_8629" maskUnits="userSpaceOnUse" x="0" y="0.283203" width="744" height="50" fill="black">
<rect fill="white" y="0.283203" width="744" height="50"/>
<path d="M1 43.2832V37.2832H13V13.2832H7V7.2832H13V1.2832H25V37.2832H37V43.2832H1ZM57.4 43.2832V37.2832H51.4V31.2832H45.4V13.2832H51.4V7.2832H57.4V1.2832H81.4V7.2832H87.4V13.2832H75.4V7.2832H63.4V13.2832H57.4V31.2832H63.4V37.2832H75.4V31.2832H87.4V37.2832H81.4V43.2832H57.4ZM107.8 19.2832V7.2832H119.8V19.2832H107.8ZM107.8 37.2832V25.2832H119.8V37.2832H107.8ZM196.6 43.2832V1.2832H238.6V43.2832H226.6V7.2832H208.6V43.2832H196.6ZM247 43.2832V1.2832H283V7.2832H289V25.2832H283V31.2832H259V43.2832H247ZM259 25.2832H277V7.2832H259V25.2832ZM297.4 43.2832V1.2832H339.4V7.2832H309.4V19.2832H333.4V25.2832H309.4V37.2832H339.4V43.2832H297.4ZM347.8 49.2832V37.2832H353.8V25.2832H359.8V1.2832H389.8V37.2832H395.8V49.2832H383.8V43.2832H359.8V49.2832H347.8ZM365.8 37.2832H377.8V7.2832H365.8V37.2832ZM398.2 43.2832V1.2832H440.2V43.2832H428.2V7.2832H410.2V43.2832H398.2ZM448.6 43.2832V1.2832H484.6V7.2832H490.6V25.2832H484.6V31.2832H460.6V43.2832H448.6ZM460.6 25.2832H478.6V7.2832H460.6V25.2832ZM499 43.2832V1.2832H511V25.2832H517V19.2832H523V13.2832H529V1.2832H541V43.2832H529V25.2832H523V31.2832H517V37.2832H511V43.2832H499ZM549.4 43.2832V37.2832H555.4V31.2832H561.4V25.2832H549.4V7.2832H555.4V1.2832H591.4V43.2832H579.4V31.2832H567.4V43.2832H549.4ZM567.4 25.2832H579.4V7.2832H561.4V19.2832H567.4V25.2832ZM617.8 43.2832V7.2832H605.8V1.2832H641.8V7.2832H629.8V43.2832H617.8ZM650.2 43.2832V1.2832H662.2V25.2832H668.2V19.2832H674.2V13.2832H680.2V1.2832H692.2V43.2832H680.2V25.2832H674.2V31.2832H668.2V37.2832H662.2V43.2832H650.2ZM700.6 43.2832V1.2832H742.6V7.2832H712.6V19.2832H736.6V25.2832H712.6V37.2832H742.6V43.2832H700.6Z"/>
</mask>
<path d="M1 43.2832H0V44.2832H1V43.2832ZM1 37.2832V36.2832H0V37.2832H1ZM13 37.2832V38.2832H14V37.2832H13ZM13 13.2832H14V12.2832H13V13.2832ZM7 13.2832H6V14.2832H7V13.2832ZM7 7.2832V6.2832H6V7.2832H7ZM13 7.2832V8.2832H14V7.2832H13ZM13 1.2832V0.283203H12V1.2832H13ZM25 1.2832H26V0.283203H25V1.2832ZM25 37.2832H24V38.2832H25V37.2832ZM37 37.2832H38V36.2832H37V37.2832ZM37 43.2832V44.2832H38V43.2832H37ZM2 43.2832V37.2832H0V43.2832H2ZM1 38.2832H13V36.2832H1V38.2832ZM14 37.2832V13.2832H12V37.2832H14ZM13 12.2832H7V14.2832H13V12.2832ZM8 13.2832V7.2832H6V13.2832H8ZM7 8.2832H13V6.2832H7V8.2832ZM14 7.2832V1.2832H12V7.2832H14ZM13 2.2832H25V0.283203H13V2.2832ZM24 1.2832V37.2832H26V1.2832H24ZM25 38.2832H37V36.2832H25V38.2832ZM36 37.2832V43.2832H38V37.2832H36ZM37 42.2832H1V44.2832H37V42.2832ZM57.4 43.2832H56.4V44.2832H57.4V43.2832ZM57.4 37.2832H58.4V36.2832H57.4V37.2832ZM51.4 37.2832H50.4V38.2832H51.4V37.2832ZM51.4 31.2832H52.4V30.2832H51.4V31.2832ZM45.4 31.2832H44.4V32.2832H45.4V31.2832ZM45.4 13.2832V12.2832H44.4V13.2832H45.4ZM51.4 13.2832V14.2832H52.4V13.2832H51.4ZM51.4 7.2832V6.2832H50.4V7.2832H51.4ZM57.4 7.2832V8.2832H58.4V7.2832H57.4ZM57.4 1.2832V0.283203H56.4V1.2832H57.4ZM81.4 1.2832H82.4V0.283203H81.4V1.2832ZM81.4 7.2832H80.4V8.2832H81.4V7.2832ZM87.4 7.2832H88.4V6.2832H87.4V7.2832ZM87.4 13.2832V14.2832H88.4V13.2832H87.4ZM75.4 13.2832H74.4V14.2832H75.4V13.2832ZM75.4 7.2832H76.4V6.2832H75.4V7.2832ZM63.4 7.2832V6.2832H62.4V7.2832H63.4ZM63.4 13.2832V14.2832H64.4V13.2832H63.4ZM57.4 13.2832V12.2832H56.4V13.2832H57.4ZM57.4 31.2832H56.4V32.2832H57.4V31.2832ZM63.4 31.2832H64.4V30.2832H63.4V31.2832ZM63.4 37.2832H62.4V38.2832H63.4V37.2832ZM75.4 37.2832V38.2832H76.4V37.2832H75.4ZM75.4 31.2832V30.2832H74.4V31.2832H75.4ZM87.4 31.2832H88.4V30.2832H87.4V31.2832ZM87.4 37.2832V38.2832H88.4V37.2832H87.4ZM81.4 37.2832V36.2832H80.4V37.2832H81.4ZM81.4 43.2832V44.2832H82.4V43.2832H81.4ZM58.4 43.2832V37.2832H56.4V43.2832H58.4ZM57.4 36.2832H51.4V38.2832H57.4V36.2832ZM52.4 37.2832V31.2832H50.4V37.2832H52.4ZM51.4 30.2832H45.4V32.2832H51.4V30.2832ZM46.4 31.2832V13.2832H44.4V31.2832H46.4ZM45.4 14.2832H51.4V12.2832H45.4V14.2832ZM52.4 13.2832V7.2832H50.4V13.2832H52.4ZM51.4 8.2832H57.4V6.2832H51.4V8.2832ZM58.4 7.2832V1.2832H56.4V7.2832H58.4ZM57.4 2.2832H81.4V0.283203H57.4V2.2832ZM80.4 1.2832V7.2832H82.4V1.2832H80.4ZM81.4 8.2832H87.4V6.2832H81.4V8.2832ZM86.4 7.2832V13.2832H88.4V7.2832H86.4ZM87.4 12.2832H75.4V14.2832H87.4V12.2832ZM76.4 13.2832V7.2832H74.4V13.2832H76.4ZM75.4 6.2832H63.4V8.2832H75.4V6.2832ZM62.4 7.2832V13.2832H64.4V7.2832H62.4ZM63.4 12.2832H57.4V14.2832H63.4V12.2832ZM56.4 13.2832V31.2832H58.4V13.2832H56.4ZM57.4 32.2832H63.4V30.2832H57.4V32.2832ZM62.4 31.2832V37.2832H64.4V31.2832H62.4ZM63.4 38.2832H75.4V36.2832H63.4V38.2832ZM76.4 37.2832V31.2832H74.4V37.2832H76.4ZM75.4 32.2832H87.4V30.2832H75.4V32.2832ZM86.4 31.2832V37.2832H88.4V31.2832H86.4ZM87.4 36.2832H81.4V38.2832H87.4V36.2832ZM80.4 37.2832V43.2832H82.4V37.2832H80.4ZM81.4 42.2832H57.4V44.2832H81.4V42.2832ZM107.8 19.2832H106.8V20.2832H107.8V19.2832ZM107.8 7.2832V6.2832H106.8V7.2832H107.8ZM119.8 7.2832H120.8V6.2832H119.8V7.2832ZM119.8 19.2832V20.2832H120.8V19.2832H119.8ZM107.8 37.2832H106.8V38.2832H107.8V37.2832ZM107.8 25.2832V24.2832H106.8V25.2832H107.8ZM119.8 25.2832H120.8V24.2832H119.8V25.2832ZM119.8 37.2832V38.2832H120.8V37.2832H119.8ZM108.8 19.2832V7.2832H106.8V19.2832H108.8ZM107.8 8.2832H119.8V6.2832H107.8V8.2832ZM118.8 7.2832V19.2832H120.8V7.2832H118.8ZM119.8 18.2832H107.8V20.2832H119.8V18.2832ZM108.8 37.2832V25.2832H106.8V37.2832H108.8ZM107.8 26.2832H119.8V24.2832H107.8V26.2832ZM118.8 25.2832V37.2832H120.8V25.2832H118.8ZM119.8 36.2832H107.8V38.2832H119.8V36.2832ZM196.6 43.2832H195.6V44.2832H196.6V43.2832ZM196.6 1.2832V0.283203H195.6V1.2832H196.6ZM238.6 1.2832H239.6V0.283203H238.6V1.2832ZM238.6 43.2832V44.2832H239.6V43.2832H238.6ZM226.6 43.2832H225.6V44.2832H226.6V43.2832ZM226.6 7.2832H227.6V6.2832H226.6V7.2832ZM208.6 7.2832V6.2832H207.6V7.2832H208.6ZM208.6 43.2832V44.2832H209.6V43.2832H208.6ZM197.6 43.2832V1.2832H195.6V43.2832H197.6ZM196.6 2.2832H238.6V0.283203H196.6V2.2832ZM237.6 1.2832V43.2832H239.6V1.2832H237.6ZM238.6 42.2832H226.6V44.2832H238.6V42.2832ZM227.6 43.2832V7.2832H225.6V43.2832H227.6ZM226.6 6.2832H208.6V8.2832H226.6V6.2832ZM207.6 7.2832V43.2832H209.6V7.2832H207.6ZM208.6 42.2832H196.6V44.2832H208.6V42.2832ZM247 43.2832H246V44.2832H247V43.2832ZM247 1.2832V0.283203H246V1.2832H247ZM283 1.2832H284V0.283203H283V1.2832ZM283 7.2832H282V8.2832H283V7.2832ZM289 7.2832H290V6.2832H289V7.2832ZM289 25.2832V26.2832H290V25.2832H289ZM283 25.2832V24.2832H282V25.2832H283ZM283 31.2832V32.2832H284V31.2832H283ZM259 31.2832V30.2832H258V31.2832H259ZM259 43.2832V44.2832H260V43.2832H259ZM259 25.2832H258V26.2832H259V25.2832ZM277 25.2832V26.2832H278V25.2832H277ZM277 7.2832H278V6.2832H277V7.2832ZM259 7.2832V6.2832H258V7.2832H259ZM248 43.2832V1.2832H246V43.2832H248ZM247 2.2832H283V0.283203H247V2.2832ZM282 1.2832V7.2832H284V1.2832H282ZM283 8.2832H289V6.2832H283V8.2832ZM288 7.2832V25.2832H290V7.2832H288ZM289 24.2832H283V26.2832H289V24.2832ZM282 25.2832V31.2832H284V25.2832H282ZM283 30.2832H259V32.2832H283V30.2832ZM258 31.2832V43.2832H260V31.2832H258ZM259 42.2832H247V44.2832H259V42.2832ZM259 26.2832H277V24.2832H259V26.2832ZM278 25.2832V7.2832H276V25.2832H278ZM277 6.2832H259V8.2832H277V6.2832ZM258 7.2832V25.2832H260V7.2832H258ZM297.4 43.2832H296.4V44.2832H297.4V43.2832ZM297.4 1.2832V0.283203H296.4V1.2832H297.4ZM339.4 1.2832H340.4V0.283203H339.4V1.2832ZM339.4 7.2832V8.2832H340.4V7.2832H339.4ZM309.4 7.2832V6.2832H308.4V7.2832H309.4ZM309.4 19.2832H308.4V20.2832H309.4V19.2832ZM333.4 19.2832H334.4V18.2832H333.4V19.2832ZM333.4 25.2832V26.2832H334.4V25.2832H333.4ZM309.4 25.2832V24.2832H308.4V25.2832H309.4ZM309.4 37.2832H308.4V38.2832H309.4V37.2832ZM339.4 37.2832H340.4V36.2832H339.4V37.2832ZM339.4 43.2832V44.2832H340.4V43.2832H339.4ZM298.4 43.2832V1.2832H296.4V43.2832H298.4ZM297.4 2.2832H339.4V0.283203H297.4V2.2832ZM338.4 1.2832V7.2832H340.4V1.2832H338.4ZM339.4 6.2832H309.4V8.2832H339.4V6.2832ZM308.4 7.2832V19.2832H310.4V7.2832H308.4ZM309.4 20.2832H333.4V18.2832H309.4V20.2832ZM332.4 19.2832V25.2832H334.4V19.2832H332.4ZM333.4 24.2832H309.4V26.2832H333.4V24.2832ZM308.4 25.2832V37.2832H310.4V25.2832H308.4ZM309.4 38.2832H339.4V36.2832H309.4V38.2832ZM338.4 37.2832V43.2832H340.4V37.2832H338.4ZM339.4 42.2832H297.4V44.2832H339.4V42.2832ZM347.8 49.2832H346.8V50.2832H347.8V49.2832ZM347.8 37.2832V36.2832H346.8V37.2832H347.8ZM353.8 37.2832V38.2832H354.8V37.2832H353.8ZM353.8 25.2832V24.2832H352.8V25.2832H353.8ZM359.8 25.2832V26.2832H360.8V25.2832H359.8ZM359.8 1.2832V0.283203H358.8V1.2832H359.8ZM389.8 1.2832H390.8V0.283203H389.8V1.2832ZM389.8 37.2832H388.8V38.2832H389.8V37.2832ZM395.8 37.2832H396.8V36.2832H395.8V37.2832ZM395.8 49.2832V50.2832H396.8V49.2832H395.8ZM383.8 49.2832H382.8V50.2832H383.8V49.2832ZM383.8 43.2832H384.8V42.2832H383.8V43.2832ZM359.8 43.2832V42.2832H358.8V43.2832H359.8ZM359.8 49.2832V50.2832H360.8V49.2832H359.8ZM365.8 37.2832H364.8V38.2832H365.8V37.2832ZM377.8 37.2832V38.2832H378.8V37.2832H377.8ZM377.8 7.2832H378.8V6.2832H377.8V7.2832ZM365.8 7.2832V6.2832H364.8V7.2832H365.8ZM348.8 49.2832V37.2832H346.8V49.2832H348.8ZM347.8 38.2832H353.8V36.2832H347.8V38.2832ZM354.8 37.2832V25.2832H352.8V37.2832H354.8ZM353.8 26.2832H359.8V24.2832H353.8V26.2832ZM360.8 25.2832V1.2832H358.8V25.2832H360.8ZM359.8 2.2832H389.8V0.283203H359.8V2.2832ZM388.8 1.2832V37.2832H390.8V1.2832H388.8ZM389.8 38.2832H395.8V36.2832H389.8V38.2832ZM394.8 37.2832V49.2832H396.8V37.2832H394.8ZM395.8 48.2832H383.8V50.2832H395.8V48.2832ZM384.8 49.2832V43.2832H382.8V49.2832H384.8ZM383.8 42.2832H359.8V44.2832H383.8V42.2832ZM358.8 43.2832V49.2832H360.8V43.2832H358.8ZM359.8 48.2832H347.8V50.2832H359.8V48.2832ZM365.8 38.2832H377.8V36.2832H365.8V38.2832ZM378.8 37.2832V7.2832H376.8V37.2832H378.8ZM377.8 6.2832H365.8V8.2832H377.8V6.2832ZM364.8 7.2832V37.2832H366.8V7.2832H364.8ZM398.2 43.2832H397.2V44.2832H398.2V43.2832ZM398.2 1.2832V0.283203H397.2V1.2832H398.2ZM440.2 1.2832H441.2V0.283203H440.2V1.2832ZM440.2 43.2832V44.2832H441.2V43.2832H440.2ZM428.2 43.2832H427.2V44.2832H428.2V43.2832ZM428.2 7.2832H429.2V6.2832H428.2V7.2832ZM410.2 7.2832V6.2832H409.2V7.2832H410.2ZM410.2 43.2832V44.2832H411.2V43.2832H410.2ZM399.2 43.2832V1.2832H397.2V43.2832H399.2ZM398.2 2.2832H440.2V0.283203H398.2V2.2832ZM439.2 1.2832V43.2832H441.2V1.2832H439.2ZM440.2 42.2832H428.2V44.2832H440.2V42.2832ZM429.2 43.2832V7.2832H427.2V43.2832H429.2ZM428.2 6.2832H410.2V8.2832H428.2V6.2832ZM409.2 7.2832V43.2832H411.2V7.2832H409.2ZM410.2 42.2832H398.2V44.2832H410.2V42.2832ZM448.6 43.2832H447.6V44.2832H448.6V43.2832ZM448.6 1.2832V0.283203H447.6V1.2832H448.6ZM484.6 1.2832H485.6V0.283203H484.6V1.2832ZM484.6 7.2832H483.6V8.2832H484.6V7.2832ZM490.6 7.2832H491.6V6.2832H490.6V7.2832ZM490.6 25.2832V26.2832H491.6V25.2832H490.6ZM484.6 25.2832V24.2832H483.6V25.2832H484.6ZM484.6 31.2832V32.2832H485.6V31.2832H484.6ZM460.6 31.2832V30.2832H459.6V31.2832H460.6ZM460.6 43.2832V44.2832H461.6V43.2832H460.6ZM460.6 25.2832H459.6V26.2832H460.6V25.2832ZM478.6 25.2832V26.2832H479.6V25.2832H478.6ZM478.6 7.2832H479.6V6.2832H478.6V7.2832ZM460.6 7.2832V6.2832H459.6V7.2832H460.6ZM449.6 43.2832V1.2832H447.6V43.2832H449.6ZM448.6 2.2832H484.6V0.283203H448.6V2.2832ZM483.6 1.2832V7.2832H485.6V1.2832H483.6ZM484.6 8.2832H490.6V6.2832H484.6V8.2832ZM489.6 7.2832V25.2832H491.6V7.2832H489.6ZM490.6 24.2832H484.6V26.2832H490.6V24.2832ZM483.6 25.2832V31.2832H485.6V25.2832H483.6ZM484.6 30.2832H460.6V32.2832H484.6V30.2832ZM459.6 31.2832V43.2832H461.6V31.2832H459.6ZM460.6 42.2832H448.6V44.2832H460.6V42.2832ZM460.6 26.2832H478.6V24.2832H460.6V26.2832ZM479.6 25.2832V7.2832H477.6V25.2832H479.6ZM478.6 6.2832H460.6V8.2832H478.6V6.2832ZM459.6 7.2832V25.2832H461.6V7.2832H459.6ZM499 43.2832H498V44.2832H499V43.2832ZM499 1.2832V0.283203H498V1.2832H499ZM511 1.2832H512V0.283203H511V1.2832ZM511 25.2832H510V26.2832H511V25.2832ZM517 25.2832V26.2832H518V25.2832H517ZM517 19.2832V18.2832H516V19.2832H517ZM523 19.2832V20.2832H524V19.2832H523ZM523 13.2832V12.2832H522V13.2832H523ZM529 13.2832V14.2832H530V13.2832H529ZM529 1.2832V0.283203H528V1.2832H529ZM541 1.2832H542V0.283203H541V1.2832ZM541 43.2832V44.2832H542V43.2832H541ZM529 43.2832H528V44.2832H529V43.2832ZM529 25.2832H530V24.2832H529V25.2832ZM523 25.2832V24.2832H522V25.2832H523ZM523 31.2832V32.2832H524V31.2832H523ZM517 31.2832V30.2832H516V31.2832H517ZM517 37.2832V38.2832H518V37.2832H517ZM511 37.2832V36.2832H510V37.2832H511ZM511 43.2832V44.2832H512V43.2832H511ZM500 43.2832V1.2832H498V43.2832H500ZM499 2.2832H511V0.283203H499V2.2832ZM510 1.2832V25.2832H512V1.2832H510ZM511 26.2832H517V24.2832H511V26.2832ZM518 25.2832V19.2832H516V25.2832H518ZM517 20.2832H523V18.2832H517V20.2832ZM524 19.2832V13.2832H522V19.2832H524ZM523 14.2832H529V12.2832H523V14.2832ZM530 13.2832V1.2832H528V13.2832H530ZM529 2.2832H541V0.283203H529V2.2832ZM540 1.2832V43.2832H542V1.2832H540ZM541 42.2832H529V44.2832H541V42.2832ZM530 43.2832V25.2832H528V43.2832H530ZM529 24.2832H523V26.2832H529V24.2832ZM522 25.2832V31.2832H524V25.2832H522ZM523 30.2832H517V32.2832H523V30.2832ZM516 31.2832V37.2832H518V31.2832H516ZM517 36.2832H511V38.2832H517V36.2832ZM510 37.2832V43.2832H512V37.2832H510ZM511 42.2832H499V44.2832H511V42.2832ZM549.4 43.2832H548.4V44.2832H549.4V43.2832ZM549.4 37.2832V36.2832H548.4V37.2832H549.4ZM555.4 37.2832V38.2832H556.4V37.2832H555.4ZM555.4 31.2832V30.2832H554.4V31.2832H555.4ZM561.4 31.2832V32.2832H562.4V31.2832H561.4ZM561.4 25.2832H562.4V24.2832H561.4V25.2832ZM549.4 25.2832H548.4V26.2832H549.4V25.2832ZM549.4 7.2832V6.2832H548.4V7.2832H549.4ZM555.4 7.2832V8.2832H556.4V7.2832H555.4ZM555.4 1.2832V0.283203H554.4V1.2832H555.4ZM591.4 1.2832H592.4V0.283203H591.4V1.2832ZM591.4 43.2832V44.2832H592.4V43.2832H591.4ZM579.4 43.2832H578.4V44.2832H579.4V43.2832ZM579.4 31.2832H580.4V30.2832H579.4V31.2832ZM567.4 31.2832V30.2832H566.4V31.2832H567.4ZM567.4 43.2832V44.2832H568.4V43.2832H567.4ZM567.4 25.2832H566.4V26.2832H567.4V25.2832ZM579.4 25.2832V26.2832H580.4V25.2832H579.4ZM579.4 7.2832H580.4V6.2832H579.4V7.2832ZM561.4 7.2832V6.2832H560.4V7.2832H561.4ZM561.4 19.2832H560.4V20.2832H561.4V19.2832ZM567.4 19.2832H568.4V18.2832H567.4V19.2832ZM550.4 43.2832V37.2832H548.4V43.2832H550.4ZM549.4 38.2832H555.4V36.2832H549.4V38.2832ZM556.4 37.2832V31.2832H554.4V37.2832H556.4ZM555.4 32.2832H561.4V30.2832H555.4V32.2832ZM562.4 31.2832V25.2832H560.4V31.2832H562.4ZM561.4 24.2832H549.4V26.2832H561.4V24.2832ZM550.4 25.2832V7.2832H548.4V25.2832H550.4ZM549.4 8.2832H555.4V6.2832H549.4V8.2832ZM556.4 7.2832V1.2832H554.4V7.2832H556.4ZM555.4 2.2832H591.4V0.283203H555.4V2.2832ZM590.4 1.2832V43.2832H592.4V1.2832H590.4ZM591.4 42.2832H579.4V44.2832H591.4V42.2832ZM580.4 43.2832V31.2832H578.4V43.2832H580.4ZM579.4 30.2832H567.4V32.2832H579.4V30.2832ZM566.4 31.2832V43.2832H568.4V31.2832H566.4ZM567.4 42.2832H549.4V44.2832H567.4V42.2832ZM567.4 26.2832H579.4V24.2832H567.4V26.2832ZM580.4 25.2832V7.2832H578.4V25.2832H580.4ZM579.4 6.2832H561.4V8.2832H579.4V6.2832ZM560.4 7.2832V19.2832H562.4V7.2832H560.4ZM561.4 20.2832H567.4V18.2832H561.4V20.2832ZM566.4 19.2832V25.2832H568.4V19.2832H566.4ZM617.8 43.2832H616.8V44.2832H617.8V43.2832ZM617.8 7.2832H618.8V6.2832H617.8V7.2832ZM605.8 7.2832H604.8V8.2832H605.8V7.2832ZM605.8 1.2832V0.283203H604.8V1.2832H605.8ZM641.8 1.2832H642.8V0.283203H641.8V1.2832ZM641.8 7.2832V8.2832H642.8V7.2832H641.8ZM629.8 7.2832V6.2832H628.8V7.2832H629.8ZM629.8 43.2832V44.2832H630.8V43.2832H629.8ZM618.8 43.2832V7.2832H616.8V43.2832H618.8ZM617.8 6.2832H605.8V8.2832H617.8V6.2832ZM606.8 7.2832V1.2832H604.8V7.2832H606.8ZM605.8 2.2832H641.8V0.283203H605.8V2.2832ZM640.8 1.2832V7.2832H642.8V1.2832H640.8ZM641.8 6.2832H629.8V8.2832H641.8V6.2832ZM628.8 7.2832V43.2832H630.8V7.2832H628.8ZM629.8 42.2832H617.8V44.2832H629.8V42.2832ZM650.2 43.2832H649.2V44.2832H650.2V43.2832ZM650.2 1.2832V0.283203H649.2V1.2832H650.2ZM662.2 1.2832H663.2V0.283203H662.2V1.2832ZM662.2 25.2832H661.2V26.2832H662.2V25.2832ZM668.2 25.2832V26.2832H669.2V25.2832H668.2ZM668.2 19.2832V18.2832H667.2V19.2832H668.2ZM674.2 19.2832V20.2832H675.2V19.2832H674.2ZM674.2 13.2832V12.2832H673.2V13.2832H674.2ZM680.2 13.2832V14.2832H681.2V13.2832H680.2ZM680.2 1.2832V0.283203H679.2V1.2832H680.2ZM692.2 1.2832H693.2V0.283203H692.2V1.2832ZM692.2 43.2832V44.2832H693.2V43.2832H692.2ZM680.2 43.2832H679.2V44.2832H680.2V43.2832ZM680.2 25.2832H681.2V24.2832H680.2V25.2832ZM674.2 25.2832V24.2832H673.2V25.2832H674.2ZM674.2 31.2832V32.2832H675.2V31.2832H674.2ZM668.2 31.2832V30.2832H667.2V31.2832H668.2ZM668.2 37.2832V38.2832H669.2V37.2832H668.2ZM662.2 37.2832V36.2832H661.2V37.2832H662.2ZM662.2 43.2832V44.2832H663.2V43.2832H662.2ZM651.2 43.2832V1.2832H649.2V43.2832H651.2ZM650.2 2.2832H662.2V0.283203H650.2V2.2832ZM661.2 1.2832V25.2832H663.2V1.2832H661.2ZM662.2 26.2832H668.2V24.2832H662.2V26.2832ZM669.2 25.2832V19.2832H667.2V25.2832H669.2ZM668.2 20.2832H674.2V18.2832H668.2V20.2832ZM675.2 19.2832V13.2832H673.2V19.2832H675.2ZM674.2 14.2832H680.2V12.2832H674.2V14.2832ZM681.2 13.2832V1.2832H679.2V13.2832H681.2ZM680.2 2.2832H692.2V0.283203H680.2V2.2832ZM691.2 1.2832V43.2832H693.2V1.2832H691.2ZM692.2 42.2832H680.2V44.2832H692.2V42.2832ZM681.2 43.2832V25.2832H679.2V43.2832H681.2ZM680.2 24.2832H674.2V26.2832H680.2V24.2832ZM673.2 25.2832V31.2832H675.2V25.2832H673.2ZM674.2 30.2832H668.2V32.2832H674.2V30.2832ZM667.2 31.2832V37.2832H669.2V31.2832H667.2ZM668.2 36.2832H662.2V38.2832H668.2V36.2832ZM661.2 37.2832V43.2832H663.2V37.2832H661.2ZM662.2 42.2832H650.2V44.2832H662.2V42.2832ZM700.6 43.2832H699.6V44.2832H700.6V43.2832ZM700.6 1.2832V0.283203H699.6V1.2832H700.6ZM742.6 1.2832H743.6V0.283203H742.6V1.2832ZM742.6 7.2832V8.2832H743.6V7.2832H742.6ZM712.6 7.2832V6.2832H711.6V7.2832H712.6ZM712.6 19.2832H711.6V20.2832H712.6V19.2832ZM736.6 19.2832H737.6V18.2832H736.6V19.2832ZM736.6 25.2832V26.2832H737.6V25.2832H736.6ZM712.6 25.2832V24.2832H711.6V25.2832H712.6ZM712.6 37.2832H711.6V38.2832H712.6V37.2832ZM742.6 37.2832H743.6V36.2832H742.6V37.2832ZM742.6 43.2832V44.2832H743.6V43.2832H742.6ZM701.6 43.2832V1.2832H699.6V43.2832H701.6ZM700.6 2.2832H742.6V0.283203H700.6V2.2832ZM741.6 1.2832V7.2832H743.6V1.2832H741.6ZM742.6 6.2832H712.6V8.2832H742.6V6.2832ZM711.6 7.2832V19.2832H713.6V7.2832H711.6ZM712.6 20.2832H736.6V18.2832H712.6V20.2832ZM735.6 19.2832V25.2832H737.6V19.2832H735.6ZM736.6 24.2832H712.6V26.2832H736.6V24.2832ZM711.6 25.2832V37.2832H713.6V25.2832H711.6ZM712.6 38.2832H742.6V36.2832H712.6V38.2832ZM741.6 37.2832V43.2832H743.6V37.2832H741.6ZM742.6 42.2832H700.6V44.2832H742.6V42.2832Z" fill="#DFDC01" mask="url(#path-1-outside-1_591_8629)"/>
</svg>
