<svg width="742" height="49" viewBox="0 0 742 49" fill="none" xmlns="http://www.w3.org/2000/svg">
<path d="M0 42.8486V36.8486H12V12.8486H6V6.84863H12V0.848633H24V36.8486H36V42.8486H0ZM56.4 42.8486V36.8486H50.4V30.8486H44.4V12.8486H50.4V6.84863H56.4V0.848633H80.4V6.84863H86.4V12.8486H74.4V6.84863H62.4V12.8486H56.4V30.8486H62.4V36.8486H74.4V30.8486H86.4V36.8486H80.4V42.8486H56.4ZM106.8 18.8486V6.84863H118.8V18.8486H106.8ZM106.8 36.8486V24.8486H118.8V36.8486H106.8ZM195.6 42.8486V0.848633H237.6V42.8486H225.6V6.84863H207.6V42.8486H195.6ZM246 42.8486V0.848633H282V6.84863H288V24.8486H282V30.8486H258V42.8486H246ZM258 24.8486H276V6.84863H258V24.8486ZM296.4 42.8486V0.848633H338.4V6.84863H308.4V18.8486H332.4V24.8486H308.4V36.8486H338.4V42.8486H296.4ZM346.8 48.8486V36.8486H352.8V24.8486H358.8V0.848633H388.8V36.8486H394.8V48.8486H382.8V42.8486H358.8V48.8486H346.8ZM364.8 36.8486H376.8V6.84863H364.8V36.8486ZM397.2 42.8486V0.848633H439.2V42.8486H427.2V6.84863H409.2V42.8486H397.2ZM447.6 42.8486V0.848633H483.6V6.84863H489.6V24.8486H483.6V30.8486H459.6V42.8486H447.6ZM459.6 24.8486H477.6V6.84863H459.6V24.8486ZM498 42.8486V0.848633H510V24.8486H516V18.8486H522V12.8486H528V0.848633H540V42.8486H528V24.8486H522V30.8486H516V36.8486H510V42.8486H498ZM548.4 42.8486V36.8486H554.4V30.8486H560.4V24.8486H548.4V6.84863H554.4V0.848633H590.4V42.8486H578.4V30.8486H566.4V42.8486H548.4ZM566.4 24.8486H578.4V6.84863H560.4V18.8486H566.4V24.8486ZM616.8 42.8486V6.84863H604.8V0.848633H640.8V6.84863H628.8V42.8486H616.8ZM649.2 42.8486V0.848633H661.2V24.8486H667.2V18.8486H673.2V12.8486H679.2V0.848633H691.2V42.8486H679.2V24.8486H673.2V30.8486H667.2V36.8486H661.2V42.8486H649.2ZM699.6 42.8486V0.848633H741.6V6.84863H711.6V18.8486H735.6V24.8486H711.6V36.8486H741.6V42.8486H699.6Z" fill="#2D2650"/>
</svg>
