<svg width="107" height="107" viewBox="0 0 107 107" fill="none" xmlns="http://www.w3.org/2000/svg">
<path d="M74.5172 31.7467C68.8141 26.5931 61.8358 23.833 56.8021 23.2615L56.3877 23.2615C56.3811 23.3008 56.3754 23.3555 56.375 23.4286L56.4529 29.1875C73.3853 32.1501 78.7014 45.9464 78.6584 54.4401C78.6091 64.1741 71.498 77.6614 54.2817 78.5488C48.8732 78.8276 42.765 76.4632 37.9904 72.2755C33.1898 68.0651 29.6145 61.9047 29.4566 54.4643L29.4562 54.4484L29.4563 54.4325L29.4563 9.36323L29.4563 8.43431L30.2878 8.02039C30.7376 7.79653 31.4449 7.45156 32.1108 7.1416C32.7199 6.85809 33.4496 6.52919 33.8542 6.41331L35.7899 5.85893L35.7671 7.87233C35.668 16.6198 35.668 28.2553 35.6928 37.709C35.7052 42.4347 35.7238 46.6133 35.7393 49.6104C35.747 51.1089 35.754 52.3121 35.759 53.1405L35.765 54.0921L35.7666 54.3386L35.767 54.3962C36.2437 65.6622 45.6472 72.0324 54.2045 72.0324C55.1517 72.0324 59.6527 71.4979 63.8881 68.9765C68.0281 66.5117 71.8949 62.1775 71.9725 54.4175C72.037 47.9687 69.1897 43.2978 65.6038 40.23C62.5671 37.6321 59.0705 36.2424 56.4644 35.895L56.4375 41.7732C60.0191 42.5277 62.4422 44.344 63.9635 46.6309C65.6264 49.1309 66.1225 52.0546 66.0925 54.4512C66.0453 58.2306 64.5155 61.1588 62.1836 63.1199C59.8831 65.0547 56.882 65.9851 53.9326 65.9851C50.9829 65.9851 47.975 65.0547 45.6562 63.1249C43.3071 61.1699 41.742 58.2485 41.6475 54.47L41.6472 54.4565L41.6471 54.443L41.3033 5.35269L41.296 4.31051L42.2701 3.94011C46.4337 2.35704 52.4422 1.88828 59.0263 2.71247C65.6404 3.54043 72.9686 5.68875 79.8102 9.47496C93.5482 17.0777 105.298 31.2866 105.298 54.4325C105.298 77.5789 91.8116 93.9654 74.4904 101.204C57.2108 108.426 36.0292 106.58 20.5555 93.2669L20.5365 93.2506L20.5182 93.2337C5.50282 79.4196 1.01704 63.4496 2.59714 49.0126C4.16941 34.6471 11.738 21.8604 20.7325 14.2497L23.1469 12.2068L23.2012 15.3691L23.8714 54.4067L23.8716 54.4234L23.8716 54.4401C23.8208 64.4625 28.3849 71.9661 34.4828 76.9992C40.6216 82.0661 48.2566 84.5748 54.1395 84.5748C59.7488 84.5748 67.3676 82.072 73.5891 76.9946C79.7687 71.9513 84.4876 64.4406 84.5383 54.4249C84.5891 44.3778 80.2121 36.8928 74.5172 31.7467Z" stroke="#DFDC01" stroke-width="3"/>
</svg>
