<svg width="498" height="45" viewBox="0 0 498 45" fill="none" xmlns="http://www.w3.org/2000/svg">
<mask id="path-1-outside-1_591_8621" maskUnits="userSpaceOnUse" x="0.224609" y="0.283203" width="498" height="44" fill="black">
<rect fill="white" x="0.224609" y="0.283203" width="498" height="44"/>
<path d="M1.22461 43.2832V1.2832H37.2246V7.2832H13.2246V19.2832H37.2246V25.2832H43.2246V37.2832H37.2246V43.2832H1.22461ZM13.2246 37.2832H31.2246V25.2832H13.2246V37.2832ZM51.6246 43.2832V1.2832H63.6246V25.2832H69.6246V19.2832H75.6246V13.2832H81.6246V1.2832H93.6246V43.2832H81.6246V25.2832H75.6246V31.2832H69.6246V37.2832H63.6246V43.2832H51.6246ZM120.025 43.2832V7.2832H108.025V1.2832H144.025V7.2832H132.025V43.2832H120.025ZM152.425 43.2832V1.2832H188.425V7.2832H194.425V25.2832H188.425V31.2832H164.425V43.2832H152.425ZM164.425 25.2832H182.425V7.2832H164.425V25.2832ZM202.825 43.2832V1.2832H214.825V25.2832H220.825V19.2832H226.825V13.2832H232.825V1.2832H244.825V43.2832H232.825V25.2832H226.825V31.2832H220.825V37.2832H214.825V43.2832H202.825ZM271.225 13.2832H277.225V19.2832H283.225V25.2832H289.225V37.2832H295.225V43.2832H283.225V37.2832H277.225V25.2832H265.225V43.2832H253.225V1.2832H265.225V19.2832H271.225V13.2832ZM295.225 1.2832V7.2832H289.225V13.2832H277.225V7.2832H283.225V1.2832H295.225ZM315.625 43.2832V37.2832H309.625V31.2832H303.625V13.2832H309.625V7.2832H315.625V1.2832H339.625V7.2832H345.625V13.2832H333.625V7.2832H321.625V13.2832H315.625V31.2832H321.625V37.2832H333.625V31.2832H345.625V37.2832H339.625V43.2832H315.625ZM404.425 43.2832V31.2832H410.425V25.2832H416.425V19.2832H428.425V13.2832H434.425V7.2832H416.425V13.2832H404.425V7.2832H410.425V1.2832H440.425V7.2832H446.425V19.2832H440.425V25.2832H434.425V31.2832H422.425V37.2832H446.425V43.2832H404.425ZM478.825 43.2832V31.2832H454.825V19.2832H460.825V13.2832H466.825V7.2832H472.825V1.2832H490.825V25.2832H496.825V31.2832H490.825V43.2832H478.825ZM466.825 25.2832H478.825V13.2832H472.825V19.2832H466.825V25.2832Z"/>
</mask>
<path d="M1.22461 43.2832H0.224609V44.2832H1.22461V43.2832ZM1.22461 1.2832V0.283203H0.224609V1.2832H1.22461ZM37.2246 1.2832H38.2246V0.283203H37.2246V1.2832ZM37.2246 7.2832V8.2832H38.2246V7.2832H37.2246ZM13.2246 7.2832V6.2832H12.2246V7.2832H13.2246ZM13.2246 19.2832H12.2246V20.2832H13.2246V19.2832ZM37.2246 19.2832H38.2246V18.2832H37.2246V19.2832ZM37.2246 25.2832H36.2246V26.2832H37.2246V25.2832ZM43.2246 25.2832H44.2246V24.2832H43.2246V25.2832ZM43.2246 37.2832V38.2832H44.2246V37.2832H43.2246ZM37.2246 37.2832V36.2832H36.2246V37.2832H37.2246ZM37.2246 43.2832V44.2832H38.2246V43.2832H37.2246ZM13.2246 37.2832H12.2246V38.2832H13.2246V37.2832ZM31.2246 37.2832V38.2832H32.2246V37.2832H31.2246ZM31.2246 25.2832H32.2246V24.2832H31.2246V25.2832ZM13.2246 25.2832V24.2832H12.2246V25.2832H13.2246ZM2.22461 43.2832V1.2832H0.224609V43.2832H2.22461ZM1.22461 2.2832H37.2246V0.283203H1.22461V2.2832ZM36.2246 1.2832V7.2832H38.2246V1.2832H36.2246ZM37.2246 6.2832H13.2246V8.2832H37.2246V6.2832ZM12.2246 7.2832V19.2832H14.2246V7.2832H12.2246ZM13.2246 20.2832H37.2246V18.2832H13.2246V20.2832ZM36.2246 19.2832V25.2832H38.2246V19.2832H36.2246ZM37.2246 26.2832H43.2246V24.2832H37.2246V26.2832ZM42.2246 25.2832V37.2832H44.2246V25.2832H42.2246ZM43.2246 36.2832H37.2246V38.2832H43.2246V36.2832ZM36.2246 37.2832V43.2832H38.2246V37.2832H36.2246ZM37.2246 42.2832H1.22461V44.2832H37.2246V42.2832ZM13.2246 38.2832H31.2246V36.2832H13.2246V38.2832ZM32.2246 37.2832V25.2832H30.2246V37.2832H32.2246ZM31.2246 24.2832H13.2246V26.2832H31.2246V24.2832ZM12.2246 25.2832V37.2832H14.2246V25.2832H12.2246ZM51.6246 43.2832H50.6246V44.2832H51.6246V43.2832ZM51.6246 1.2832V0.283203H50.6246V1.2832H51.6246ZM63.6246 1.2832H64.6246V0.283203H63.6246V1.2832ZM63.6246 25.2832H62.6246V26.2832H63.6246V25.2832ZM69.6246 25.2832V26.2832H70.6246V25.2832H69.6246ZM69.6246 19.2832V18.2832H68.6246V19.2832H69.6246ZM75.6246 19.2832V20.2832H76.6246V19.2832H75.6246ZM75.6246 13.2832V12.2832H74.6246V13.2832H75.6246ZM81.6246 13.2832V14.2832H82.6246V13.2832H81.6246ZM81.6246 1.2832V0.283203H80.6246V1.2832H81.6246ZM93.6246 1.2832H94.6246V0.283203H93.6246V1.2832ZM93.6246 43.2832V44.2832H94.6246V43.2832H93.6246ZM81.6246 43.2832H80.6246V44.2832H81.6246V43.2832ZM81.6246 25.2832H82.6246V24.2832H81.6246V25.2832ZM75.6246 25.2832V24.2832H74.6246V25.2832H75.6246ZM75.6246 31.2832V32.2832H76.6246V31.2832H75.6246ZM69.6246 31.2832V30.2832H68.6246V31.2832H69.6246ZM69.6246 37.2832V38.2832H70.6246V37.2832H69.6246ZM63.6246 37.2832V36.2832H62.6246V37.2832H63.6246ZM63.6246 43.2832V44.2832H64.6246V43.2832H63.6246ZM52.6246 43.2832V1.2832H50.6246V43.2832H52.6246ZM51.6246 2.2832H63.6246V0.283203H51.6246V2.2832ZM62.6246 1.2832V25.2832H64.6246V1.2832H62.6246ZM63.6246 26.2832H69.6246V24.2832H63.6246V26.2832ZM70.6246 25.2832V19.2832H68.6246V25.2832H70.6246ZM69.6246 20.2832H75.6246V18.2832H69.6246V20.2832ZM76.6246 19.2832V13.2832H74.6246V19.2832H76.6246ZM75.6246 14.2832H81.6246V12.2832H75.6246V14.2832ZM82.6246 13.2832V1.2832H80.6246V13.2832H82.6246ZM81.6246 2.2832H93.6246V0.283203H81.6246V2.2832ZM92.6246 1.2832V43.2832H94.6246V1.2832H92.6246ZM93.6246 42.2832H81.6246V44.2832H93.6246V42.2832ZM82.6246 43.2832V25.2832H80.6246V43.2832H82.6246ZM81.6246 24.2832H75.6246V26.2832H81.6246V24.2832ZM74.6246 25.2832V31.2832H76.6246V25.2832H74.6246ZM75.6246 30.2832H69.6246V32.2832H75.6246V30.2832ZM68.6246 31.2832V37.2832H70.6246V31.2832H68.6246ZM69.6246 36.2832H63.6246V38.2832H69.6246V36.2832ZM62.6246 37.2832V43.2832H64.6246V37.2832H62.6246ZM63.6246 42.2832H51.6246V44.2832H63.6246V42.2832ZM120.025 43.2832H119.025V44.2832H120.025V43.2832ZM120.025 7.2832H121.025V6.2832H120.025V7.2832ZM108.025 7.2832H107.025V8.2832H108.025V7.2832ZM108.025 1.2832V0.283203H107.025V1.2832H108.025ZM144.025 1.2832H145.025V0.283203H144.025V1.2832ZM144.025 7.2832V8.2832H145.025V7.2832H144.025ZM132.025 7.2832V6.2832H131.025V7.2832H132.025ZM132.025 43.2832V44.2832H133.025V43.2832H132.025ZM121.025 43.2832V7.2832H119.025V43.2832H121.025ZM120.025 6.2832H108.025V8.2832H120.025V6.2832ZM109.025 7.2832V1.2832H107.025V7.2832H109.025ZM108.025 2.2832H144.025V0.283203H108.025V2.2832ZM143.025 1.2832V7.2832H145.025V1.2832H143.025ZM144.025 6.2832H132.025V8.2832H144.025V6.2832ZM131.025 7.2832V43.2832H133.025V7.2832H131.025ZM132.025 42.2832H120.025V44.2832H132.025V42.2832ZM152.425 43.2832H151.425V44.2832H152.425V43.2832ZM152.425 1.2832V0.283203H151.425V1.2832H152.425ZM188.425 1.2832H189.425V0.283203H188.425V1.2832ZM188.425 7.2832H187.425V8.2832H188.425V7.2832ZM194.425 7.2832H195.425V6.2832H194.425V7.2832ZM194.425 25.2832V26.2832H195.425V25.2832H194.425ZM188.425 25.2832V24.2832H187.425V25.2832H188.425ZM188.425 31.2832V32.2832H189.425V31.2832H188.425ZM164.425 31.2832V30.2832H163.425V31.2832H164.425ZM164.425 43.2832V44.2832H165.425V43.2832H164.425ZM164.425 25.2832H163.425V26.2832H164.425V25.2832ZM182.425 25.2832V26.2832H183.425V25.2832H182.425ZM182.425 7.2832H183.425V6.2832H182.425V7.2832ZM164.425 7.2832V6.2832H163.425V7.2832H164.425ZM153.425 43.2832V1.2832H151.425V43.2832H153.425ZM152.425 2.2832H188.425V0.283203H152.425V2.2832ZM187.425 1.2832V7.2832H189.425V1.2832H187.425ZM188.425 8.2832H194.425V6.2832H188.425V8.2832ZM193.425 7.2832V25.2832H195.425V7.2832H193.425ZM194.425 24.2832H188.425V26.2832H194.425V24.2832ZM187.425 25.2832V31.2832H189.425V25.2832H187.425ZM188.425 30.2832H164.425V32.2832H188.425V30.2832ZM163.425 31.2832V43.2832H165.425V31.2832H163.425ZM164.425 42.2832H152.425V44.2832H164.425V42.2832ZM164.425 26.2832H182.425V24.2832H164.425V26.2832ZM183.425 25.2832V7.2832H181.425V25.2832H183.425ZM182.425 6.2832H164.425V8.2832H182.425V6.2832ZM163.425 7.2832V25.2832H165.425V7.2832H163.425ZM202.825 43.2832H201.825V44.2832H202.825V43.2832ZM202.825 1.2832V0.283203H201.825V1.2832H202.825ZM214.825 1.2832H215.825V0.283203H214.825V1.2832ZM214.825 25.2832H213.825V26.2832H214.825V25.2832ZM220.825 25.2832V26.2832H221.825V25.2832H220.825ZM220.825 19.2832V18.2832H219.825V19.2832H220.825ZM226.825 19.2832V20.2832H227.825V19.2832H226.825ZM226.825 13.2832V12.2832H225.825V13.2832H226.825ZM232.825 13.2832V14.2832H233.825V13.2832H232.825ZM232.825 1.2832V0.283203H231.825V1.2832H232.825ZM244.825 1.2832H245.825V0.283203H244.825V1.2832ZM244.825 43.2832V44.2832H245.825V43.2832H244.825ZM232.825 43.2832H231.825V44.2832H232.825V43.2832ZM232.825 25.2832H233.825V24.2832H232.825V25.2832ZM226.825 25.2832V24.2832H225.825V25.2832H226.825ZM226.825 31.2832V32.2832H227.825V31.2832H226.825ZM220.825 31.2832V30.2832H219.825V31.2832H220.825ZM220.825 37.2832V38.2832H221.825V37.2832H220.825ZM214.825 37.2832V36.2832H213.825V37.2832H214.825ZM214.825 43.2832V44.2832H215.825V43.2832H214.825ZM203.825 43.2832V1.2832H201.825V43.2832H203.825ZM202.825 2.2832H214.825V0.283203H202.825V2.2832ZM213.825 1.2832V25.2832H215.825V1.2832H213.825ZM214.825 26.2832H220.825V24.2832H214.825V26.2832ZM221.825 25.2832V19.2832H219.825V25.2832H221.825ZM220.825 20.2832H226.825V18.2832H220.825V20.2832ZM227.825 19.2832V13.2832H225.825V19.2832H227.825ZM226.825 14.2832H232.825V12.2832H226.825V14.2832ZM233.825 13.2832V1.2832H231.825V13.2832H233.825ZM232.825 2.2832H244.825V0.283203H232.825V2.2832ZM243.825 1.2832V43.2832H245.825V1.2832H243.825ZM244.825 42.2832H232.825V44.2832H244.825V42.2832ZM233.825 43.2832V25.2832H231.825V43.2832H233.825ZM232.825 24.2832H226.825V26.2832H232.825V24.2832ZM225.825 25.2832V31.2832H227.825V25.2832H225.825ZM226.825 30.2832H220.825V32.2832H226.825V30.2832ZM219.825 31.2832V37.2832H221.825V31.2832H219.825ZM220.825 36.2832H214.825V38.2832H220.825V36.2832ZM213.825 37.2832V43.2832H215.825V37.2832H213.825ZM214.825 42.2832H202.825V44.2832H214.825V42.2832ZM271.225 13.2832V12.2832H270.225V13.2832H271.225ZM277.225 13.2832H278.225V12.2832H277.225V13.2832ZM277.225 19.2832H276.225V20.2832H277.225V19.2832ZM283.225 19.2832H284.225V18.2832H283.225V19.2832ZM283.225 25.2832H282.225V26.2832H283.225V25.2832ZM289.225 25.2832H290.225V24.2832H289.225V25.2832ZM289.225 37.2832H288.225V38.2832H289.225V37.2832ZM295.225 37.2832H296.225V36.2832H295.225V37.2832ZM295.225 43.2832V44.2832H296.225V43.2832H295.225ZM283.225 43.2832H282.225V44.2832H283.225V43.2832ZM283.225 37.2832H284.225V36.2832H283.225V37.2832ZM277.225 37.2832H276.225V38.2832H277.225V37.2832ZM277.225 25.2832H278.225V24.2832H277.225V25.2832ZM265.225 25.2832V24.2832H264.225V25.2832H265.225ZM265.225 43.2832V44.2832H266.225V43.2832H265.225ZM253.225 43.2832H252.225V44.2832H253.225V43.2832ZM253.225 1.2832V0.283203H252.225V1.2832H253.225ZM265.225 1.2832H266.225V0.283203H265.225V1.2832ZM265.225 19.2832H264.225V20.2832H265.225V19.2832ZM271.225 19.2832V20.2832H272.225V19.2832H271.225ZM295.225 1.2832H296.225V0.283203H295.225V1.2832ZM295.225 7.2832V8.2832H296.225V7.2832H295.225ZM289.225 7.2832V6.2832H288.225V7.2832H289.225ZM289.225 13.2832V14.2832H290.225V13.2832H289.225ZM277.225 13.2832H276.225V14.2832H277.225V13.2832ZM277.225 7.2832V6.2832H276.225V7.2832H277.225ZM283.225 7.2832V8.2832H284.225V7.2832H283.225ZM283.225 1.2832V0.283203H282.225V1.2832H283.225ZM271.225 14.2832H277.225V12.2832H271.225V14.2832ZM276.225 13.2832V19.2832H278.225V13.2832H276.225ZM277.225 20.2832H283.225V18.2832H277.225V20.2832ZM282.225 19.2832V25.2832H284.225V19.2832H282.225ZM283.225 26.2832H289.225V24.2832H283.225V26.2832ZM288.225 25.2832V37.2832H290.225V25.2832H288.225ZM289.225 38.2832H295.225V36.2832H289.225V38.2832ZM294.225 37.2832V43.2832H296.225V37.2832H294.225ZM295.225 42.2832H283.225V44.2832H295.225V42.2832ZM284.225 43.2832V37.2832H282.225V43.2832H284.225ZM283.225 36.2832H277.225V38.2832H283.225V36.2832ZM278.225 37.2832V25.2832H276.225V37.2832H278.225ZM277.225 24.2832H265.225V26.2832H277.225V24.2832ZM264.225 25.2832V43.2832H266.225V25.2832H264.225ZM265.225 42.2832H253.225V44.2832H265.225V42.2832ZM254.225 43.2832V1.2832H252.225V43.2832H254.225ZM253.225 2.2832H265.225V0.283203H253.225V2.2832ZM264.225 1.2832V19.2832H266.225V1.2832H264.225ZM265.225 20.2832H271.225V18.2832H265.225V20.2832ZM272.225 19.2832V13.2832H270.225V19.2832H272.225ZM294.225 1.2832V7.2832H296.225V1.2832H294.225ZM295.225 6.2832H289.225V8.2832H295.225V6.2832ZM288.225 7.2832V13.2832H290.225V7.2832H288.225ZM289.225 12.2832H277.225V14.2832H289.225V12.2832ZM278.225 13.2832V7.2832H276.225V13.2832H278.225ZM277.225 8.2832H283.225V6.2832H277.225V8.2832ZM284.225 7.2832V1.2832H282.225V7.2832H284.225ZM283.225 2.2832H295.225V0.283203H283.225V2.2832ZM315.625 43.2832H314.625V44.2832H315.625V43.2832ZM315.625 37.2832H316.625V36.2832H315.625V37.2832ZM309.625 37.2832H308.625V38.2832H309.625V37.2832ZM309.625 31.2832H310.625V30.2832H309.625V31.2832ZM303.625 31.2832H302.625V32.2832H303.625V31.2832ZM303.625 13.2832V12.2832H302.625V13.2832H303.625ZM309.625 13.2832V14.2832H310.625V13.2832H309.625ZM309.625 7.2832V6.2832H308.625V7.2832H309.625ZM315.625 7.2832V8.2832H316.625V7.2832H315.625ZM315.625 1.2832V0.283203H314.625V1.2832H315.625ZM339.625 1.2832H340.625V0.283203H339.625V1.2832ZM339.625 7.2832H338.625V8.2832H339.625V7.2832ZM345.625 7.2832H346.625V6.2832H345.625V7.2832ZM345.625 13.2832V14.2832H346.625V13.2832H345.625ZM333.625 13.2832H332.625V14.2832H333.625V13.2832ZM333.625 7.2832H334.625V6.2832H333.625V7.2832ZM321.625 7.2832V6.2832H320.625V7.2832H321.625ZM321.625 13.2832V14.2832H322.625V13.2832H321.625ZM315.625 13.2832V12.2832H314.625V13.2832H315.625ZM315.625 31.2832H314.625V32.2832H315.625V31.2832ZM321.625 31.2832H322.625V30.2832H321.625V31.2832ZM321.625 37.2832H320.625V38.2832H321.625V37.2832ZM333.625 37.2832V38.2832H334.625V37.2832H333.625ZM333.625 31.2832V30.2832H332.625V31.2832H333.625ZM345.625 31.2832H346.625V30.2832H345.625V31.2832ZM345.625 37.2832V38.2832H346.625V37.2832H345.625ZM339.625 37.2832V36.2832H338.625V37.2832H339.625ZM339.625 43.2832V44.2832H340.625V43.2832H339.625ZM316.625 43.2832V37.2832H314.625V43.2832H316.625ZM315.625 36.2832H309.625V38.2832H315.625V36.2832ZM310.625 37.2832V31.2832H308.625V37.2832H310.625ZM309.625 30.2832H303.625V32.2832H309.625V30.2832ZM304.625 31.2832V13.2832H302.625V31.2832H304.625ZM303.625 14.2832H309.625V12.2832H303.625V14.2832ZM310.625 13.2832V7.2832H308.625V13.2832H310.625ZM309.625 8.2832H315.625V6.2832H309.625V8.2832ZM316.625 7.2832V1.2832H314.625V7.2832H316.625ZM315.625 2.2832H339.625V0.283203H315.625V2.2832ZM338.625 1.2832V7.2832H340.625V1.2832H338.625ZM339.625 8.2832H345.625V6.2832H339.625V8.2832ZM344.625 7.2832V13.2832H346.625V7.2832H344.625ZM345.625 12.2832H333.625V14.2832H345.625V12.2832ZM334.625 13.2832V7.2832H332.625V13.2832H334.625ZM333.625 6.2832H321.625V8.2832H333.625V6.2832ZM320.625 7.2832V13.2832H322.625V7.2832H320.625ZM321.625 12.2832H315.625V14.2832H321.625V12.2832ZM314.625 13.2832V31.2832H316.625V13.2832H314.625ZM315.625 32.2832H321.625V30.2832H315.625V32.2832ZM320.625 31.2832V37.2832H322.625V31.2832H320.625ZM321.625 38.2832H333.625V36.2832H321.625V38.2832ZM334.625 37.2832V31.2832H332.625V37.2832H334.625ZM333.625 32.2832H345.625V30.2832H333.625V32.2832ZM344.625 31.2832V37.2832H346.625V31.2832H344.625ZM345.625 36.2832H339.625V38.2832H345.625V36.2832ZM338.625 37.2832V43.2832H340.625V37.2832H338.625ZM339.625 42.2832H315.625V44.2832H339.625V42.2832ZM404.425 43.2832H403.425V44.2832H404.425V43.2832ZM404.425 31.2832V30.2832H403.425V31.2832H404.425ZM410.425 31.2832V32.2832H411.425V31.2832H410.425ZM410.425 25.2832V24.2832H409.425V25.2832H410.425ZM416.425 25.2832V26.2832H417.425V25.2832H416.425ZM416.425 19.2832V18.2832H415.425V19.2832H416.425ZM428.425 19.2832V20.2832H429.425V19.2832H428.425ZM428.425 13.2832V12.2832H427.425V13.2832H428.425ZM434.425 13.2832V14.2832H435.425V13.2832H434.425ZM434.425 7.2832H435.425V6.2832H434.425V7.2832ZM416.425 7.2832V6.2832H415.425V7.2832H416.425ZM416.425 13.2832V14.2832H417.425V13.2832H416.425ZM404.425 13.2832H403.425V14.2832H404.425V13.2832ZM404.425 7.2832V6.2832H403.425V7.2832H404.425ZM410.425 7.2832V8.2832H411.425V7.2832H410.425ZM410.425 1.2832V0.283203H409.425V1.2832H410.425ZM440.425 1.2832H441.425V0.283203H440.425V1.2832ZM440.425 7.2832H439.425V8.2832H440.425V7.2832ZM446.425 7.2832H447.425V6.2832H446.425V7.2832ZM446.425 19.2832V20.2832H447.425V19.2832H446.425ZM440.425 19.2832V18.2832H439.425V19.2832H440.425ZM440.425 25.2832V26.2832H441.425V25.2832H440.425ZM434.425 25.2832V24.2832H433.425V25.2832H434.425ZM434.425 31.2832V32.2832H435.425V31.2832H434.425ZM422.425 31.2832V30.2832H421.425V31.2832H422.425ZM422.425 37.2832H421.425V38.2832H422.425V37.2832ZM446.425 37.2832H447.425V36.2832H446.425V37.2832ZM446.425 43.2832V44.2832H447.425V43.2832H446.425ZM405.425 43.2832V31.2832H403.425V43.2832H405.425ZM404.425 32.2832H410.425V30.2832H404.425V32.2832ZM411.425 31.2832V25.2832H409.425V31.2832H411.425ZM410.425 26.2832H416.425V24.2832H410.425V26.2832ZM417.425 25.2832V19.2832H415.425V25.2832H417.425ZM416.425 20.2832H428.425V18.2832H416.425V20.2832ZM429.425 19.2832V13.2832H427.425V19.2832H429.425ZM428.425 14.2832H434.425V12.2832H428.425V14.2832ZM435.425 13.2832V7.2832H433.425V13.2832H435.425ZM434.425 6.2832H416.425V8.2832H434.425V6.2832ZM415.425 7.2832V13.2832H417.425V7.2832H415.425ZM416.425 12.2832H404.425V14.2832H416.425V12.2832ZM405.425 13.2832V7.2832H403.425V13.2832H405.425ZM404.425 8.2832H410.425V6.2832H404.425V8.2832ZM411.425 7.2832V1.2832H409.425V7.2832H411.425ZM410.425 2.2832H440.425V0.283203H410.425V2.2832ZM439.425 1.2832V7.2832H441.425V1.2832H439.425ZM440.425 8.2832H446.425V6.2832H440.425V8.2832ZM445.425 7.2832V19.2832H447.425V7.2832H445.425ZM446.425 18.2832H440.425V20.2832H446.425V18.2832ZM439.425 19.2832V25.2832H441.425V19.2832H439.425ZM440.425 24.2832H434.425V26.2832H440.425V24.2832ZM433.425 25.2832V31.2832H435.425V25.2832H433.425ZM434.425 30.2832H422.425V32.2832H434.425V30.2832ZM421.425 31.2832V37.2832H423.425V31.2832H421.425ZM422.425 38.2832H446.425V36.2832H422.425V38.2832ZM445.425 37.2832V43.2832H447.425V37.2832H445.425ZM446.425 42.2832H404.425V44.2832H446.425V42.2832ZM478.825 43.2832H477.825V44.2832H478.825V43.2832ZM478.825 31.2832H479.825V30.2832H478.825V31.2832ZM454.825 31.2832H453.825V32.2832H454.825V31.2832ZM454.825 19.2832V18.2832H453.825V19.2832H454.825ZM460.825 19.2832V20.2832H461.825V19.2832H460.825ZM460.825 13.2832V12.2832H459.825V13.2832H460.825ZM466.825 13.2832V14.2832H467.825V13.2832H466.825ZM466.825 7.2832V6.2832H465.825V7.2832H466.825ZM472.825 7.2832V8.2832H473.825V7.2832H472.825ZM472.825 1.2832V0.283203H471.825V1.2832H472.825ZM490.825 1.2832H491.825V0.283203H490.825V1.2832ZM490.825 25.2832H489.825V26.2832H490.825V25.2832ZM496.825 25.2832H497.825V24.2832H496.825V25.2832ZM496.825 31.2832V32.2832H497.825V31.2832H496.825ZM490.825 31.2832V30.2832H489.825V31.2832H490.825ZM490.825 43.2832V44.2832H491.825V43.2832H490.825ZM466.825 25.2832H465.825V26.2832H466.825V25.2832ZM478.825 25.2832V26.2832H479.825V25.2832H478.825ZM478.825 13.2832H479.825V12.2832H478.825V13.2832ZM472.825 13.2832V12.2832H471.825V13.2832H472.825ZM472.825 19.2832V20.2832H473.825V19.2832H472.825ZM466.825 19.2832V18.2832H465.825V19.2832H466.825ZM479.825 43.2832V31.2832H477.825V43.2832H479.825ZM478.825 30.2832H454.825V32.2832H478.825V30.2832ZM455.825 31.2832V19.2832H453.825V31.2832H455.825ZM454.825 20.2832H460.825V18.2832H454.825V20.2832ZM461.825 19.2832V13.2832H459.825V19.2832H461.825ZM460.825 14.2832H466.825V12.2832H460.825V14.2832ZM467.825 13.2832V7.2832H465.825V13.2832H467.825ZM466.825 8.2832H472.825V6.2832H466.825V8.2832ZM473.825 7.2832V1.2832H471.825V7.2832H473.825ZM472.825 2.2832H490.825V0.283203H472.825V2.2832ZM489.825 1.2832V25.2832H491.825V1.2832H489.825ZM490.825 26.2832H496.825V24.2832H490.825V26.2832ZM495.825 25.2832V31.2832H497.825V25.2832H495.825ZM496.825 30.2832H490.825V32.2832H496.825V30.2832ZM489.825 31.2832V43.2832H491.825V31.2832H489.825ZM490.825 42.2832H478.825V44.2832H490.825V42.2832ZM466.825 26.2832H478.825V24.2832H466.825V26.2832ZM479.825 25.2832V13.2832H477.825V25.2832H479.825ZM478.825 12.2832H472.825V14.2832H478.825V12.2832ZM471.825 13.2832V19.2832H473.825V13.2832H471.825ZM472.825 18.2832H466.825V20.2832H472.825V18.2832ZM465.825 19.2832V25.2832H467.825V19.2832H465.825Z" fill="#2D2650" mask="url(#path-1-outside-1_591_8621)"/>
</svg>
