<svg width="497" height="43" viewBox="0 0 497 43" fill="none" xmlns="http://www.w3.org/2000/svg">
<path d="M0.626953 42.8486V0.848633H36.627V6.84863H12.627V18.8486H36.627V24.8486H42.627V36.8486H36.627V42.8486H0.626953ZM12.627 36.8486H30.627V24.8486H12.627V36.8486ZM51.027 42.8486V0.848633H63.027V24.8486H69.027V18.8486H75.027V12.8486H81.027V0.848633H93.027V42.8486H81.027V24.8486H75.027V30.8486H69.027V36.8486H63.027V42.8486H51.027ZM119.427 42.8486V6.84863H107.427V0.848633H143.427V6.84863H131.427V42.8486H119.427ZM151.827 42.8486V0.848633H187.827V6.84863H193.827V24.8486H187.827V30.8486H163.827V42.8486H151.827ZM163.827 24.8486H181.827V6.84863H163.827V24.8486ZM202.227 42.8486V0.848633H214.227V24.8486H220.227V18.8486H226.227V12.8486H232.227V0.848633H244.227V42.8486H232.227V24.8486H226.227V30.8486H220.227V36.8486H214.227V42.8486H202.227ZM270.627 12.8486H276.627V18.8486H282.627V24.8486H288.627V36.8486H294.627V42.8486H282.627V36.8486H276.627V24.8486H264.627V42.8486H252.627V0.848633H264.627V18.8486H270.627V12.8486ZM294.627 0.848633V6.84863H288.627V12.8486H276.627V6.84863H282.627V0.848633H294.627ZM315.027 42.8486V36.8486H309.027V30.8486H303.027V12.8486H309.027V6.84863H315.027V0.848633H339.027V6.84863H345.027V12.8486H333.027V6.84863H321.027V12.8486H315.027V30.8486H321.027V36.8486H333.027V30.8486H345.027V36.8486H339.027V42.8486H315.027ZM403.827 42.8486V30.8486H409.827V24.8486H415.827V18.8486H427.827V12.8486H433.827V6.84863H415.827V12.8486H403.827V6.84863H409.827V0.848633H439.827V6.84863H445.827V18.8486H439.827V24.8486H433.827V30.8486H421.827V36.8486H445.827V42.8486H403.827ZM478.227 42.8486V30.8486H454.227V18.8486H460.227V12.8486H466.227V6.84863H472.227V0.848633H490.227V24.8486H496.227V30.8486H490.227V42.8486H478.227ZM466.227 24.8486H478.227V12.8486H472.227V18.8486H466.227V24.8486Z" fill="#DFDC01"/>
</svg>
