<svg width="446" height="43" viewBox="0 0 446 43" fill="none" xmlns="http://www.w3.org/2000/svg">
<path d="M0.494141 42.2832V0.283203H12.4941V18.2832H18.4941V12.2832H24.4941V6.2832H30.4941V0.283203H42.4941V6.2832H36.4941V12.2832H30.4941V18.2832H24.4941V24.2832H30.4941V30.2832H36.4941V36.2832H42.4941V42.2832H24.4941V36.2832H18.4941V30.2832H12.4941V42.2832H0.494141ZM50.8941 42.2832V12.2832H56.8941V6.2832H62.8941V0.283203H80.8941V6.2832H86.8941V12.2832H92.8941V42.2832H80.8941V30.2832H62.8941V42.2832H50.8941ZM62.8941 24.2832H80.8941V12.2832H74.8941V6.2832H68.8941V12.2832H62.8941V24.2832ZM107.294 42.2832V36.2832H101.294V30.2832H113.294V36.2832H131.294V24.2832H107.294V18.2832H101.294V6.2832H107.294V0.283203H137.294V6.2832H143.294V12.2832H131.294V6.2832H113.294V18.2832H137.294V24.2832H143.294V36.2832H137.294V42.2832H107.294ZM151.694 42.2832V0.283203H187.694V6.2832H193.694V24.2832H187.694V30.2832H163.694V42.2832H151.694ZM163.694 24.2832H181.694V6.2832H163.694V24.2832ZM202.094 42.2832V0.283203H244.094V6.2832H214.094V18.2832H238.094V24.2832H214.094V36.2832H244.094V42.2832H202.094ZM252.494 42.2832V0.283203H288.494V6.2832H294.494V24.2832H282.494V30.2832H288.494V36.2832H294.494V42.2832H276.494V36.2832H270.494V30.2832H264.494V42.2832H252.494ZM264.494 24.2832H276.494V18.2832H282.494V6.2832H264.494V24.2832ZM308.894 42.2832V36.2832H302.894V30.2832H314.894V36.2832H332.894V24.2832H308.894V18.2832H302.894V6.2832H308.894V0.283203H338.894V6.2832H344.894V12.2832H332.894V6.2832H314.894V18.2832H338.894V24.2832H344.894V36.2832H338.894V42.2832H308.894ZM353.294 42.2832V0.283203H365.294V18.2832H371.294V12.2832H377.294V6.2832H383.294V0.283203H395.294V6.2832H389.294V12.2832H383.294V18.2832H377.294V24.2832H383.294V30.2832H389.294V36.2832H395.294V42.2832H377.294V36.2832H371.294V30.2832H365.294V42.2832H353.294ZM421.694 42.2832V24.2832H415.694V18.2832H409.694V0.283203H421.694V18.2832H433.694V0.283203H445.694V18.2832H439.694V24.2832H433.694V42.2832H421.694Z" fill="#DFDC01"/>
</svg>
