<svg width="496" height="43" viewBox="0 0 496 43" fill="none" xmlns="http://www.w3.org/2000/svg">
<path d="M12 42.2832V36.2832H6V30.2832H0V12.2832H6V6.2832H12V0.283203H36V6.2832H42V12.2832H30V6.2832H18V12.2832H12V30.2832H18V36.2832H30V30.2832H42V36.2832H36V42.2832H12ZM68.4 12.2832H74.4V18.2832H80.4V24.2832H86.4V36.2832H92.4V42.2832H80.4V36.2832H74.4V24.2832H62.4V42.2832H50.4V0.283203H62.4V18.2832H68.4V12.2832ZM92.4 0.283203V6.2832H86.4V12.2832H74.4V6.2832H80.4V0.283203H92.4ZM100.8 42.2832V0.283203H136.8V6.2832H112.8V18.2832H136.8V24.2832H142.8V36.2832H136.8V42.2832H100.8ZM112.8 36.2832H130.8V24.2832H112.8V36.2832ZM219.6 12.2832H225.6V18.2832H231.6V24.2832H237.6V36.2832H243.6V42.2832H231.6V36.2832H225.6V24.2832H213.6V42.2832H201.6V0.283203H213.6V18.2832H219.6V12.2832ZM243.6 0.283203V6.2832H237.6V12.2832H225.6V6.2832H231.6V0.283203H243.6ZM258 42.2832V36.2832H252V6.2832H258V0.283203H288V6.2832H294V36.2832H288V42.2832H258ZM264 36.2832H282V6.2832H264V36.2832ZM302.4 42.2832V0.283203H314.4V18.2832H332.4V0.283203H344.4V42.2832H332.4V24.2832H314.4V42.2832H302.4ZM370.8 42.2832V6.2832H358.8V0.283203H394.8V6.2832H382.8V42.2832H370.8ZM409.2 42.2832V36.2832H403.2V30.2832H415.2V36.2832H433.2V24.2832H409.2V18.2832H403.2V0.283203H415.2V18.2832H433.2V0.283203H445.2V36.2832H439.2V42.2832H409.2ZM453.6 42.2832V0.283203H489.6V6.2832H495.6V24.2832H489.6V30.2832H465.6V42.2832H453.6ZM465.6 24.2832H483.6V6.2832H465.6V24.2832Z" fill="#2B2A28"/>
</svg>
