<svg width="698" height="49" viewBox="0 0 698 49" fill="none" xmlns="http://www.w3.org/2000/svg">
<path d="M0 42.2832V36.2832H6V30.2832H12V24.2832H0V6.2832H6V0.283203H42V42.2832H30V30.2832H18V42.2832H0ZM18 24.2832H30V6.2832H12V18.2832H18V24.2832ZM50.4 42.2832V0.283203H62.4V18.2832H80.4V0.283203H92.4V42.2832H80.4V24.2832H62.4V42.2832H50.4ZM100.8 48.2832V36.2832H106.8V24.2832H112.8V0.283203H142.8V36.2832H148.8V48.2832H136.8V42.2832H112.8V48.2832H100.8ZM118.8 36.2832H130.8V6.2832H118.8V36.2832ZM151.2 42.2832V0.283203H193.2V6.2832H163.2V18.2832H187.2V24.2832H163.2V36.2832H193.2V42.2832H151.2ZM219.6 12.2832H225.6V18.2832H231.6V24.2832H237.6V36.2832H243.6V42.2832H231.6V36.2832H225.6V24.2832H213.6V42.2832H201.6V0.283203H213.6V18.2832H219.6V12.2832ZM243.6 0.283203V6.2832H237.6V12.2832H225.6V6.2832H231.6V0.283203H243.6ZM264 42.2832V36.2832H258V30.2832H252V12.2832H258V6.2832H264V0.283203H288V6.2832H294V12.2832H282V6.2832H270V12.2832H264V30.2832H270V36.2832H282V30.2832H294V36.2832H288V42.2832H264ZM314.4 42.2832V30.2832H326.4V42.2832H314.4ZM409.2 42.2832V36.2832H403.2V6.2832H409.2V0.283203H439.2V6.2832H445.2V36.2832H439.2V42.2832H409.2ZM415.2 36.2832H433.2V6.2832H415.2V36.2832ZM453.6 42.2832V0.283203H489.6V6.2832H465.6V18.2832H489.6V24.2832H495.6V36.2832H489.6V42.2832H453.6ZM465.6 36.2832H483.6V24.2832H465.6V36.2832ZM504 42.2832V30.2832H510V24.2832H516V0.283203H546V42.2832H534V6.2832H522V36.2832H516V42.2832H504ZM554.4 42.2832V12.2832H560.4V6.2832H566.4V0.283203H584.4V6.2832H590.4V12.2832H596.4V42.2832H584.4V30.2832H566.4V42.2832H554.4ZM566.4 24.2832H584.4V12.2832H578.4V6.2832H572.4V12.2832H566.4V24.2832ZM622.8 12.2832H628.8V18.2832H634.8V24.2832H640.8V36.2832H646.8V42.2832H634.8V36.2832H628.8V24.2832H616.8V42.2832H604.8V0.283203H616.8V18.2832H622.8V12.2832ZM646.8 0.283203V6.2832H640.8V12.2832H628.8V6.2832H634.8V0.283203H646.8ZM661.2 42.2832V36.2832H655.2V6.2832H661.2V0.283203H691.2V6.2832H697.2V36.2832H691.2V42.2832H661.2ZM667.2 36.2832H685.2V6.2832H667.2V36.2832Z" fill="#2B2A28"/>
</svg>
