<svg width="700" height="51" viewBox="0 0 700 51" fill="none" xmlns="http://www.w3.org/2000/svg">
<mask id="path-1-outside-1_591_8637" maskUnits="userSpaceOnUse" x="0.547852" y="0.848633" width="700" height="50" fill="black">
<rect fill="white" x="0.547852" y="0.848633" width="700" height="50"/>
<path d="M1.54785 43.8486V37.8486H7.54785V31.8486H13.5479V25.8486H1.54785V7.84863H7.54785V1.84863H43.5479V43.8486H31.5479V31.8486H19.5479V43.8486H1.54785ZM19.5479 25.8486H31.5479V7.84863H13.5479V19.8486H19.5479V25.8486ZM51.9479 43.8486V1.84863H63.9479V19.8486H81.9479V1.84863H93.9479V43.8486H81.9479V25.8486H63.9479V43.8486H51.9479ZM102.348 49.8486V37.8486H108.348V25.8486H114.348V1.84863H144.348V37.8486H150.348V49.8486H138.348V43.8486H114.348V49.8486H102.348ZM120.348 37.8486H132.348V7.84863H120.348V37.8486ZM152.748 43.8486V1.84863H194.748V7.84863H164.748V19.8486H188.748V25.8486H164.748V37.8486H194.748V43.8486H152.748ZM221.148 13.8486H227.148V19.8486H233.148V25.8486H239.148V37.8486H245.148V43.8486H233.148V37.8486H227.148V25.8486H215.148V43.8486H203.148V1.84863H215.148V19.8486H221.148V13.8486ZM245.148 1.84863V7.84863H239.148V13.8486H227.148V7.84863H233.148V1.84863H245.148ZM265.548 43.8486V37.8486H259.548V31.8486H253.548V13.8486H259.548V7.84863H265.548V1.84863H289.548V7.84863H295.548V13.8486H283.548V7.84863H271.548V13.8486H265.548V31.8486H271.548V37.8486H283.548V31.8486H295.548V37.8486H289.548V43.8486H265.548ZM315.948 43.8486V31.8486H327.948V43.8486H315.948ZM410.748 43.8486V37.8486H404.748V7.84863H410.748V1.84863H440.748V7.84863H446.748V37.8486H440.748V43.8486H410.748ZM416.748 37.8486H434.748V7.84863H416.748V37.8486ZM455.148 43.8486V1.84863H491.148V7.84863H467.148V19.8486H491.148V25.8486H497.148V37.8486H491.148V43.8486H455.148ZM467.148 37.8486H485.148V25.8486H467.148V37.8486ZM505.548 43.8486V31.8486H511.548V25.8486H517.548V1.84863H547.548V43.8486H535.548V7.84863H523.548V37.8486H517.548V43.8486H505.548ZM555.948 43.8486V13.8486H561.948V7.84863H567.948V1.84863H585.948V7.84863H591.948V13.8486H597.948V43.8486H585.948V31.8486H567.948V43.8486H555.948ZM567.948 25.8486H585.948V13.8486H579.948V7.84863H573.948V13.8486H567.948V25.8486ZM624.348 13.8486H630.348V19.8486H636.348V25.8486H642.348V37.8486H648.348V43.8486H636.348V37.8486H630.348V25.8486H618.348V43.8486H606.348V1.84863H618.348V19.8486H624.348V13.8486ZM648.348 1.84863V7.84863H642.348V13.8486H630.348V7.84863H636.348V1.84863H648.348ZM662.748 43.8486V37.8486H656.748V7.84863H662.748V1.84863H692.748V7.84863H698.748V37.8486H692.748V43.8486H662.748ZM668.748 37.8486H686.748V7.84863H668.748V37.8486Z"/>
</mask>
<path d="M1.54785 43.8486H0.547852V44.8486H1.54785V43.8486ZM1.54785 37.8486V36.8486H0.547852V37.8486H1.54785ZM7.54785 37.8486V38.8486H8.54785V37.8486H7.54785ZM7.54785 31.8486V30.8486H6.54785V31.8486H7.54785ZM13.5479 31.8486V32.8486H14.5479V31.8486H13.5479ZM13.5479 25.8486H14.5479V24.8486H13.5479V25.8486ZM1.54785 25.8486H0.547852V26.8486H1.54785V25.8486ZM1.54785 7.84863V6.84863H0.547852V7.84863H1.54785ZM7.54785 7.84863V8.84863H8.54785V7.84863H7.54785ZM7.54785 1.84863V0.848633H6.54785V1.84863H7.54785ZM43.5479 1.84863H44.5479V0.848633H43.5479V1.84863ZM43.5479 43.8486V44.8486H44.5479V43.8486H43.5479ZM31.5479 43.8486H30.5479V44.8486H31.5479V43.8486ZM31.5479 31.8486H32.5479V30.8486H31.5479V31.8486ZM19.5479 31.8486V30.8486H18.5479V31.8486H19.5479ZM19.5479 43.8486V44.8486H20.5479V43.8486H19.5479ZM19.5479 25.8486H18.5479V26.8486H19.5479V25.8486ZM31.5479 25.8486V26.8486H32.5479V25.8486H31.5479ZM31.5479 7.84863H32.5479V6.84863H31.5479V7.84863ZM13.5479 7.84863V6.84863H12.5479V7.84863H13.5479ZM13.5479 19.8486H12.5479V20.8486H13.5479V19.8486ZM19.5479 19.8486H20.5479V18.8486H19.5479V19.8486ZM2.54785 43.8486V37.8486H0.547852V43.8486H2.54785ZM1.54785 38.8486H7.54785V36.8486H1.54785V38.8486ZM8.54785 37.8486V31.8486H6.54785V37.8486H8.54785ZM7.54785 32.8486H13.5479V30.8486H7.54785V32.8486ZM14.5479 31.8486V25.8486H12.5479V31.8486H14.5479ZM13.5479 24.8486H1.54785V26.8486H13.5479V24.8486ZM2.54785 25.8486V7.84863H0.547852V25.8486H2.54785ZM1.54785 8.84863H7.54785V6.84863H1.54785V8.84863ZM8.54785 7.84863V1.84863H6.54785V7.84863H8.54785ZM7.54785 2.84863H43.5479V0.848633H7.54785V2.84863ZM42.5479 1.84863V43.8486H44.5479V1.84863H42.5479ZM43.5479 42.8486H31.5479V44.8486H43.5479V42.8486ZM32.5479 43.8486V31.8486H30.5479V43.8486H32.5479ZM31.5479 30.8486H19.5479V32.8486H31.5479V30.8486ZM18.5479 31.8486V43.8486H20.5479V31.8486H18.5479ZM19.5479 42.8486H1.54785V44.8486H19.5479V42.8486ZM19.5479 26.8486H31.5479V24.8486H19.5479V26.8486ZM32.5479 25.8486V7.84863H30.5479V25.8486H32.5479ZM31.5479 6.84863H13.5479V8.84863H31.5479V6.84863ZM12.5479 7.84863V19.8486H14.5479V7.84863H12.5479ZM13.5479 20.8486H19.5479V18.8486H13.5479V20.8486ZM18.5479 19.8486V25.8486H20.5479V19.8486H18.5479ZM51.9479 43.8486H50.9479V44.8486H51.9479V43.8486ZM51.9479 1.84863V0.848633H50.9479V1.84863H51.9479ZM63.9479 1.84863H64.9479V0.848633H63.9479V1.84863ZM63.9479 19.8486H62.9479V20.8486H63.9479V19.8486ZM81.9479 19.8486V20.8486H82.9479V19.8486H81.9479ZM81.9479 1.84863V0.848633H80.9479V1.84863H81.9479ZM93.9479 1.84863H94.9479V0.848633H93.9479V1.84863ZM93.9479 43.8486V44.8486H94.9479V43.8486H93.9479ZM81.9479 43.8486H80.9479V44.8486H81.9479V43.8486ZM81.9479 25.8486H82.9479V24.8486H81.9479V25.8486ZM63.9479 25.8486V24.8486H62.9479V25.8486H63.9479ZM63.9479 43.8486V44.8486H64.9479V43.8486H63.9479ZM52.9479 43.8486V1.84863H50.9479V43.8486H52.9479ZM51.9479 2.84863H63.9479V0.848633H51.9479V2.84863ZM62.9479 1.84863V19.8486H64.9479V1.84863H62.9479ZM63.9479 20.8486H81.9479V18.8486H63.9479V20.8486ZM82.9479 19.8486V1.84863H80.9479V19.8486H82.9479ZM81.9479 2.84863H93.9479V0.848633H81.9479V2.84863ZM92.9479 1.84863V43.8486H94.9479V1.84863H92.9479ZM93.9479 42.8486H81.9479V44.8486H93.9479V42.8486ZM82.9479 43.8486V25.8486H80.9479V43.8486H82.9479ZM81.9479 24.8486H63.9479V26.8486H81.9479V24.8486ZM62.9479 25.8486V43.8486H64.9479V25.8486H62.9479ZM63.9479 42.8486H51.9479V44.8486H63.9479V42.8486ZM102.348 49.8486H101.348V50.8486H102.348V49.8486ZM102.348 37.8486V36.8486H101.348V37.8486H102.348ZM108.348 37.8486V38.8486H109.348V37.8486H108.348ZM108.348 25.8486V24.8486H107.348V25.8486H108.348ZM114.348 25.8486V26.8486H115.348V25.8486H114.348ZM114.348 1.84863V0.848633H113.348V1.84863H114.348ZM144.348 1.84863H145.348V0.848633H144.348V1.84863ZM144.348 37.8486H143.348V38.8486H144.348V37.8486ZM150.348 37.8486H151.348V36.8486H150.348V37.8486ZM150.348 49.8486V50.8486H151.348V49.8486H150.348ZM138.348 49.8486H137.348V50.8486H138.348V49.8486ZM138.348 43.8486H139.348V42.8486H138.348V43.8486ZM114.348 43.8486V42.8486H113.348V43.8486H114.348ZM114.348 49.8486V50.8486H115.348V49.8486H114.348ZM120.348 37.8486H119.348V38.8486H120.348V37.8486ZM132.348 37.8486V38.8486H133.348V37.8486H132.348ZM132.348 7.84863H133.348V6.84863H132.348V7.84863ZM120.348 7.84863V6.84863H119.348V7.84863H120.348ZM103.348 49.8486V37.8486H101.348V49.8486H103.348ZM102.348 38.8486H108.348V36.8486H102.348V38.8486ZM109.348 37.8486V25.8486H107.348V37.8486H109.348ZM108.348 26.8486H114.348V24.8486H108.348V26.8486ZM115.348 25.8486V1.84863H113.348V25.8486H115.348ZM114.348 2.84863H144.348V0.848633H114.348V2.84863ZM143.348 1.84863V37.8486H145.348V1.84863H143.348ZM144.348 38.8486H150.348V36.8486H144.348V38.8486ZM149.348 37.8486V49.8486H151.348V37.8486H149.348ZM150.348 48.8486H138.348V50.8486H150.348V48.8486ZM139.348 49.8486V43.8486H137.348V49.8486H139.348ZM138.348 42.8486H114.348V44.8486H138.348V42.8486ZM113.348 43.8486V49.8486H115.348V43.8486H113.348ZM114.348 48.8486H102.348V50.8486H114.348V48.8486ZM120.348 38.8486H132.348V36.8486H120.348V38.8486ZM133.348 37.8486V7.84863H131.348V37.8486H133.348ZM132.348 6.84863H120.348V8.84863H132.348V6.84863ZM119.348 7.84863V37.8486H121.348V7.84863H119.348ZM152.748 43.8486H151.748V44.8486H152.748V43.8486ZM152.748 1.84863V0.848633H151.748V1.84863H152.748ZM194.748 1.84863H195.748V0.848633H194.748V1.84863ZM194.748 7.84863V8.84863H195.748V7.84863H194.748ZM164.748 7.84863V6.84863H163.748V7.84863H164.748ZM164.748 19.8486H163.748V20.8486H164.748V19.8486ZM188.748 19.8486H189.748V18.8486H188.748V19.8486ZM188.748 25.8486V26.8486H189.748V25.8486H188.748ZM164.748 25.8486V24.8486H163.748V25.8486H164.748ZM164.748 37.8486H163.748V38.8486H164.748V37.8486ZM194.748 37.8486H195.748V36.8486H194.748V37.8486ZM194.748 43.8486V44.8486H195.748V43.8486H194.748ZM153.748 43.8486V1.84863H151.748V43.8486H153.748ZM152.748 2.84863H194.748V0.848633H152.748V2.84863ZM193.748 1.84863V7.84863H195.748V1.84863H193.748ZM194.748 6.84863H164.748V8.84863H194.748V6.84863ZM163.748 7.84863V19.8486H165.748V7.84863H163.748ZM164.748 20.8486H188.748V18.8486H164.748V20.8486ZM187.748 19.8486V25.8486H189.748V19.8486H187.748ZM188.748 24.8486H164.748V26.8486H188.748V24.8486ZM163.748 25.8486V37.8486H165.748V25.8486H163.748ZM164.748 38.8486H194.748V36.8486H164.748V38.8486ZM193.748 37.8486V43.8486H195.748V37.8486H193.748ZM194.748 42.8486H152.748V44.8486H194.748V42.8486ZM221.148 13.8486V12.8486H220.148V13.8486H221.148ZM227.148 13.8486H228.148V12.8486H227.148V13.8486ZM227.148 19.8486H226.148V20.8486H227.148V19.8486ZM233.148 19.8486H234.148V18.8486H233.148V19.8486ZM233.148 25.8486H232.148V26.8486H233.148V25.8486ZM239.148 25.8486H240.148V24.8486H239.148V25.8486ZM239.148 37.8486H238.148V38.8486H239.148V37.8486ZM245.148 37.8486H246.148V36.8486H245.148V37.8486ZM245.148 43.8486V44.8486H246.148V43.8486H245.148ZM233.148 43.8486H232.148V44.8486H233.148V43.8486ZM233.148 37.8486H234.148V36.8486H233.148V37.8486ZM227.148 37.8486H226.148V38.8486H227.148V37.8486ZM227.148 25.8486H228.148V24.8486H227.148V25.8486ZM215.148 25.8486V24.8486H214.148V25.8486H215.148ZM215.148 43.8486V44.8486H216.148V43.8486H215.148ZM203.148 43.8486H202.148V44.8486H203.148V43.8486ZM203.148 1.84863V0.848633H202.148V1.84863H203.148ZM215.148 1.84863H216.148V0.848633H215.148V1.84863ZM215.148 19.8486H214.148V20.8486H215.148V19.8486ZM221.148 19.8486V20.8486H222.148V19.8486H221.148ZM245.148 1.84863H246.148V0.848633H245.148V1.84863ZM245.148 7.84863V8.84863H246.148V7.84863H245.148ZM239.148 7.84863V6.84863H238.148V7.84863H239.148ZM239.148 13.8486V14.8486H240.148V13.8486H239.148ZM227.148 13.8486H226.148V14.8486H227.148V13.8486ZM227.148 7.84863V6.84863H226.148V7.84863H227.148ZM233.148 7.84863V8.84863H234.148V7.84863H233.148ZM233.148 1.84863V0.848633H232.148V1.84863H233.148ZM221.148 14.8486H227.148V12.8486H221.148V14.8486ZM226.148 13.8486V19.8486H228.148V13.8486H226.148ZM227.148 20.8486H233.148V18.8486H227.148V20.8486ZM232.148 19.8486V25.8486H234.148V19.8486H232.148ZM233.148 26.8486H239.148V24.8486H233.148V26.8486ZM238.148 25.8486V37.8486H240.148V25.8486H238.148ZM239.148 38.8486H245.148V36.8486H239.148V38.8486ZM244.148 37.8486V43.8486H246.148V37.8486H244.148ZM245.148 42.8486H233.148V44.8486H245.148V42.8486ZM234.148 43.8486V37.8486H232.148V43.8486H234.148ZM233.148 36.8486H227.148V38.8486H233.148V36.8486ZM228.148 37.8486V25.8486H226.148V37.8486H228.148ZM227.148 24.8486H215.148V26.8486H227.148V24.8486ZM214.148 25.8486V43.8486H216.148V25.8486H214.148ZM215.148 42.8486H203.148V44.8486H215.148V42.8486ZM204.148 43.8486V1.84863H202.148V43.8486H204.148ZM203.148 2.84863H215.148V0.848633H203.148V2.84863ZM214.148 1.84863V19.8486H216.148V1.84863H214.148ZM215.148 20.8486H221.148V18.8486H215.148V20.8486ZM222.148 19.8486V13.8486H220.148V19.8486H222.148ZM244.148 1.84863V7.84863H246.148V1.84863H244.148ZM245.148 6.84863H239.148V8.84863H245.148V6.84863ZM238.148 7.84863V13.8486H240.148V7.84863H238.148ZM239.148 12.8486H227.148V14.8486H239.148V12.8486ZM228.148 13.8486V7.84863H226.148V13.8486H228.148ZM227.148 8.84863H233.148V6.84863H227.148V8.84863ZM234.148 7.84863V1.84863H232.148V7.84863H234.148ZM233.148 2.84863H245.148V0.848633H233.148V2.84863ZM265.548 43.8486H264.548V44.8486H265.548V43.8486ZM265.548 37.8486H266.548V36.8486H265.548V37.8486ZM259.548 37.8486H258.548V38.8486H259.548V37.8486ZM259.548 31.8486H260.548V30.8486H259.548V31.8486ZM253.548 31.8486H252.548V32.8486H253.548V31.8486ZM253.548 13.8486V12.8486H252.548V13.8486H253.548ZM259.548 13.8486V14.8486H260.548V13.8486H259.548ZM259.548 7.84863V6.84863H258.548V7.84863H259.548ZM265.548 7.84863V8.84863H266.548V7.84863H265.548ZM265.548 1.84863V0.848633H264.548V1.84863H265.548ZM289.548 1.84863H290.548V0.848633H289.548V1.84863ZM289.548 7.84863H288.548V8.84863H289.548V7.84863ZM295.548 7.84863H296.548V6.84863H295.548V7.84863ZM295.548 13.8486V14.8486H296.548V13.8486H295.548ZM283.548 13.8486H282.548V14.8486H283.548V13.8486ZM283.548 7.84863H284.548V6.84863H283.548V7.84863ZM271.548 7.84863V6.84863H270.548V7.84863H271.548ZM271.548 13.8486V14.8486H272.548V13.8486H271.548ZM265.548 13.8486V12.8486H264.548V13.8486H265.548ZM265.548 31.8486H264.548V32.8486H265.548V31.8486ZM271.548 31.8486H272.548V30.8486H271.548V31.8486ZM271.548 37.8486H270.548V38.8486H271.548V37.8486ZM283.548 37.8486V38.8486H284.548V37.8486H283.548ZM283.548 31.8486V30.8486H282.548V31.8486H283.548ZM295.548 31.8486H296.548V30.8486H295.548V31.8486ZM295.548 37.8486V38.8486H296.548V37.8486H295.548ZM289.548 37.8486V36.8486H288.548V37.8486H289.548ZM289.548 43.8486V44.8486H290.548V43.8486H289.548ZM266.548 43.8486V37.8486H264.548V43.8486H266.548ZM265.548 36.8486H259.548V38.8486H265.548V36.8486ZM260.548 37.8486V31.8486H258.548V37.8486H260.548ZM259.548 30.8486H253.548V32.8486H259.548V30.8486ZM254.548 31.8486V13.8486H252.548V31.8486H254.548ZM253.548 14.8486H259.548V12.8486H253.548V14.8486ZM260.548 13.8486V7.84863H258.548V13.8486H260.548ZM259.548 8.84863H265.548V6.84863H259.548V8.84863ZM266.548 7.84863V1.84863H264.548V7.84863H266.548ZM265.548 2.84863H289.548V0.848633H265.548V2.84863ZM288.548 1.84863V7.84863H290.548V1.84863H288.548ZM289.548 8.84863H295.548V6.84863H289.548V8.84863ZM294.548 7.84863V13.8486H296.548V7.84863H294.548ZM295.548 12.8486H283.548V14.8486H295.548V12.8486ZM284.548 13.8486V7.84863H282.548V13.8486H284.548ZM283.548 6.84863H271.548V8.84863H283.548V6.84863ZM270.548 7.84863V13.8486H272.548V7.84863H270.548ZM271.548 12.8486H265.548V14.8486H271.548V12.8486ZM264.548 13.8486V31.8486H266.548V13.8486H264.548ZM265.548 32.8486H271.548V30.8486H265.548V32.8486ZM270.548 31.8486V37.8486H272.548V31.8486H270.548ZM271.548 38.8486H283.548V36.8486H271.548V38.8486ZM284.548 37.8486V31.8486H282.548V37.8486H284.548ZM283.548 32.8486H295.548V30.8486H283.548V32.8486ZM294.548 31.8486V37.8486H296.548V31.8486H294.548ZM295.548 36.8486H289.548V38.8486H295.548V36.8486ZM288.548 37.8486V43.8486H290.548V37.8486H288.548ZM289.548 42.8486H265.548V44.8486H289.548V42.8486ZM315.948 43.8486H314.948V44.8486H315.948V43.8486ZM315.948 31.8486V30.8486H314.948V31.8486H315.948ZM327.948 31.8486H328.948V30.8486H327.948V31.8486ZM327.948 43.8486V44.8486H328.948V43.8486H327.948ZM316.948 43.8486V31.8486H314.948V43.8486H316.948ZM315.948 32.8486H327.948V30.8486H315.948V32.8486ZM326.948 31.8486V43.8486H328.948V31.8486H326.948ZM327.948 42.8486H315.948V44.8486H327.948V42.8486ZM410.748 43.8486H409.748V44.8486H410.748V43.8486ZM410.748 37.8486H411.748V36.8486H410.748V37.8486ZM404.748 37.8486H403.748V38.8486H404.748V37.8486ZM404.748 7.84863V6.84863H403.748V7.84863H404.748ZM410.748 7.84863V8.84863H411.748V7.84863H410.748ZM410.748 1.84863V0.848633H409.748V1.84863H410.748ZM440.748 1.84863H441.748V0.848633H440.748V1.84863ZM440.748 7.84863H439.748V8.84863H440.748V7.84863ZM446.748 7.84863H447.748V6.84863H446.748V7.84863ZM446.748 37.8486V38.8486H447.748V37.8486H446.748ZM440.748 37.8486V36.8486H439.748V37.8486H440.748ZM440.748 43.8486V44.8486H441.748V43.8486H440.748ZM416.748 37.8486H415.748V38.8486H416.748V37.8486ZM434.748 37.8486V38.8486H435.748V37.8486H434.748ZM434.748 7.84863H435.748V6.84863H434.748V7.84863ZM416.748 7.84863V6.84863H415.748V7.84863H416.748ZM411.748 43.8486V37.8486H409.748V43.8486H411.748ZM410.748 36.8486H404.748V38.8486H410.748V36.8486ZM405.748 37.8486V7.84863H403.748V37.8486H405.748ZM404.748 8.84863H410.748V6.84863H404.748V8.84863ZM411.748 7.84863V1.84863H409.748V7.84863H411.748ZM410.748 2.84863H440.748V0.848633H410.748V2.84863ZM439.748 1.84863V7.84863H441.748V1.84863H439.748ZM440.748 8.84863H446.748V6.84863H440.748V8.84863ZM445.748 7.84863V37.8486H447.748V7.84863H445.748ZM446.748 36.8486H440.748V38.8486H446.748V36.8486ZM439.748 37.8486V43.8486H441.748V37.8486H439.748ZM440.748 42.8486H410.748V44.8486H440.748V42.8486ZM416.748 38.8486H434.748V36.8486H416.748V38.8486ZM435.748 37.8486V7.84863H433.748V37.8486H435.748ZM434.748 6.84863H416.748V8.84863H434.748V6.84863ZM415.748 7.84863V37.8486H417.748V7.84863H415.748ZM455.148 43.8486H454.148V44.8486H455.148V43.8486ZM455.148 1.84863V0.848633H454.148V1.84863H455.148ZM491.148 1.84863H492.148V0.848633H491.148V1.84863ZM491.148 7.84863V8.84863H492.148V7.84863H491.148ZM467.148 7.84863V6.84863H466.148V7.84863H467.148ZM467.148 19.8486H466.148V20.8486H467.148V19.8486ZM491.148 19.8486H492.148V18.8486H491.148V19.8486ZM491.148 25.8486H490.148V26.8486H491.148V25.8486ZM497.148 25.8486H498.148V24.8486H497.148V25.8486ZM497.148 37.8486V38.8486H498.148V37.8486H497.148ZM491.148 37.8486V36.8486H490.148V37.8486H491.148ZM491.148 43.8486V44.8486H492.148V43.8486H491.148ZM467.148 37.8486H466.148V38.8486H467.148V37.8486ZM485.148 37.8486V38.8486H486.148V37.8486H485.148ZM485.148 25.8486H486.148V24.8486H485.148V25.8486ZM467.148 25.8486V24.8486H466.148V25.8486H467.148ZM456.148 43.8486V1.84863H454.148V43.8486H456.148ZM455.148 2.84863H491.148V0.848633H455.148V2.84863ZM490.148 1.84863V7.84863H492.148V1.84863H490.148ZM491.148 6.84863H467.148V8.84863H491.148V6.84863ZM466.148 7.84863V19.8486H468.148V7.84863H466.148ZM467.148 20.8486H491.148V18.8486H467.148V20.8486ZM490.148 19.8486V25.8486H492.148V19.8486H490.148ZM491.148 26.8486H497.148V24.8486H491.148V26.8486ZM496.148 25.8486V37.8486H498.148V25.8486H496.148ZM497.148 36.8486H491.148V38.8486H497.148V36.8486ZM490.148 37.8486V43.8486H492.148V37.8486H490.148ZM491.148 42.8486H455.148V44.8486H491.148V42.8486ZM467.148 38.8486H485.148V36.8486H467.148V38.8486ZM486.148 37.8486V25.8486H484.148V37.8486H486.148ZM485.148 24.8486H467.148V26.8486H485.148V24.8486ZM466.148 25.8486V37.8486H468.148V25.8486H466.148ZM505.548 43.8486H504.548V44.8486H505.548V43.8486ZM505.548 31.8486V30.8486H504.548V31.8486H505.548ZM511.548 31.8486V32.8486H512.548V31.8486H511.548ZM511.548 25.8486V24.8486H510.548V25.8486H511.548ZM517.548 25.8486V26.8486H518.548V25.8486H517.548ZM517.548 1.84863V0.848633H516.548V1.84863H517.548ZM547.548 1.84863H548.548V0.848633H547.548V1.84863ZM547.548 43.8486V44.8486H548.548V43.8486H547.548ZM535.548 43.8486H534.548V44.8486H535.548V43.8486ZM535.548 7.84863H536.548V6.84863H535.548V7.84863ZM523.548 7.84863V6.84863H522.548V7.84863H523.548ZM523.548 37.8486V38.8486H524.548V37.8486H523.548ZM517.548 37.8486V36.8486H516.548V37.8486H517.548ZM517.548 43.8486V44.8486H518.548V43.8486H517.548ZM506.548 43.8486V31.8486H504.548V43.8486H506.548ZM505.548 32.8486H511.548V30.8486H505.548V32.8486ZM512.548 31.8486V25.8486H510.548V31.8486H512.548ZM511.548 26.8486H517.548V24.8486H511.548V26.8486ZM518.548 25.8486V1.84863H516.548V25.8486H518.548ZM517.548 2.84863H547.548V0.848633H517.548V2.84863ZM546.548 1.84863V43.8486H548.548V1.84863H546.548ZM547.548 42.8486H535.548V44.8486H547.548V42.8486ZM536.548 43.8486V7.84863H534.548V43.8486H536.548ZM535.548 6.84863H523.548V8.84863H535.548V6.84863ZM522.548 7.84863V37.8486H524.548V7.84863H522.548ZM523.548 36.8486H517.548V38.8486H523.548V36.8486ZM516.548 37.8486V43.8486H518.548V37.8486H516.548ZM517.548 42.8486H505.548V44.8486H517.548V42.8486ZM555.948 43.8486H554.948V44.8486H555.948V43.8486ZM555.948 13.8486V12.8486H554.948V13.8486H555.948ZM561.948 13.8486V14.8486H562.948V13.8486H561.948ZM561.948 7.84863V6.84863H560.948V7.84863H561.948ZM567.948 7.84863V8.84863H568.948V7.84863H567.948ZM567.948 1.84863V0.848633H566.948V1.84863H567.948ZM585.948 1.84863H586.948V0.848633H585.948V1.84863ZM585.948 7.84863H584.948V8.84863H585.948V7.84863ZM591.948 7.84863H592.948V6.84863H591.948V7.84863ZM591.948 13.8486H590.948V14.8486H591.948V13.8486ZM597.948 13.8486H598.948V12.8486H597.948V13.8486ZM597.948 43.8486V44.8486H598.948V43.8486H597.948ZM585.948 43.8486H584.948V44.8486H585.948V43.8486ZM585.948 31.8486H586.948V30.8486H585.948V31.8486ZM567.948 31.8486V30.8486H566.948V31.8486H567.948ZM567.948 43.8486V44.8486H568.948V43.8486H567.948ZM567.948 25.8486H566.948V26.8486H567.948V25.8486ZM585.948 25.8486V26.8486H586.948V25.8486H585.948ZM585.948 13.8486H586.948V12.8486H585.948V13.8486ZM579.948 13.8486H578.948V14.8486H579.948V13.8486ZM579.948 7.84863H580.948V6.84863H579.948V7.84863ZM573.948 7.84863V6.84863H572.948V7.84863H573.948ZM573.948 13.8486V14.8486H574.948V13.8486H573.948ZM567.948 13.8486V12.8486H566.948V13.8486H567.948ZM556.948 43.8486V13.8486H554.948V43.8486H556.948ZM555.948 14.8486H561.948V12.8486H555.948V14.8486ZM562.948 13.8486V7.84863H560.948V13.8486H562.948ZM561.948 8.84863H567.948V6.84863H561.948V8.84863ZM568.948 7.84863V1.84863H566.948V7.84863H568.948ZM567.948 2.84863H585.948V0.848633H567.948V2.84863ZM584.948 1.84863V7.84863H586.948V1.84863H584.948ZM585.948 8.84863H591.948V6.84863H585.948V8.84863ZM590.948 7.84863V13.8486H592.948V7.84863H590.948ZM591.948 14.8486H597.948V12.8486H591.948V14.8486ZM596.948 13.8486V43.8486H598.948V13.8486H596.948ZM597.948 42.8486H585.948V44.8486H597.948V42.8486ZM586.948 43.8486V31.8486H584.948V43.8486H586.948ZM585.948 30.8486H567.948V32.8486H585.948V30.8486ZM566.948 31.8486V43.8486H568.948V31.8486H566.948ZM567.948 42.8486H555.948V44.8486H567.948V42.8486ZM567.948 26.8486H585.948V24.8486H567.948V26.8486ZM586.948 25.8486V13.8486H584.948V25.8486H586.948ZM585.948 12.8486H579.948V14.8486H585.948V12.8486ZM580.948 13.8486V7.84863H578.948V13.8486H580.948ZM579.948 6.84863H573.948V8.84863H579.948V6.84863ZM572.948 7.84863V13.8486H574.948V7.84863H572.948ZM573.948 12.8486H567.948V14.8486H573.948V12.8486ZM566.948 13.8486V25.8486H568.948V13.8486H566.948ZM624.348 13.8486V12.8486H623.348V13.8486H624.348ZM630.348 13.8486H631.348V12.8486H630.348V13.8486ZM630.348 19.8486H629.348V20.8486H630.348V19.8486ZM636.348 19.8486H637.348V18.8486H636.348V19.8486ZM636.348 25.8486H635.348V26.8486H636.348V25.8486ZM642.348 25.8486H643.348V24.8486H642.348V25.8486ZM642.348 37.8486H641.348V38.8486H642.348V37.8486ZM648.348 37.8486H649.348V36.8486H648.348V37.8486ZM648.348 43.8486V44.8486H649.348V43.8486H648.348ZM636.348 43.8486H635.348V44.8486H636.348V43.8486ZM636.348 37.8486H637.348V36.8486H636.348V37.8486ZM630.348 37.8486H629.348V38.8486H630.348V37.8486ZM630.348 25.8486H631.348V24.8486H630.348V25.8486ZM618.348 25.8486V24.8486H617.348V25.8486H618.348ZM618.348 43.8486V44.8486H619.348V43.8486H618.348ZM606.348 43.8486H605.348V44.8486H606.348V43.8486ZM606.348 1.84863V0.848633H605.348V1.84863H606.348ZM618.348 1.84863H619.348V0.848633H618.348V1.84863ZM618.348 19.8486H617.348V20.8486H618.348V19.8486ZM624.348 19.8486V20.8486H625.348V19.8486H624.348ZM648.348 1.84863H649.348V0.848633H648.348V1.84863ZM648.348 7.84863V8.84863H649.348V7.84863H648.348ZM642.348 7.84863V6.84863H641.348V7.84863H642.348ZM642.348 13.8486V14.8486H643.348V13.8486H642.348ZM630.348 13.8486H629.348V14.8486H630.348V13.8486ZM630.348 7.84863V6.84863H629.348V7.84863H630.348ZM636.348 7.84863V8.84863H637.348V7.84863H636.348ZM636.348 1.84863V0.848633H635.348V1.84863H636.348ZM624.348 14.8486H630.348V12.8486H624.348V14.8486ZM629.348 13.8486V19.8486H631.348V13.8486H629.348ZM630.348 20.8486H636.348V18.8486H630.348V20.8486ZM635.348 19.8486V25.8486H637.348V19.8486H635.348ZM636.348 26.8486H642.348V24.8486H636.348V26.8486ZM641.348 25.8486V37.8486H643.348V25.8486H641.348ZM642.348 38.8486H648.348V36.8486H642.348V38.8486ZM647.348 37.8486V43.8486H649.348V37.8486H647.348ZM648.348 42.8486H636.348V44.8486H648.348V42.8486ZM637.348 43.8486V37.8486H635.348V43.8486H637.348ZM636.348 36.8486H630.348V38.8486H636.348V36.8486ZM631.348 37.8486V25.8486H629.348V37.8486H631.348ZM630.348 24.8486H618.348V26.8486H630.348V24.8486ZM617.348 25.8486V43.8486H619.348V25.8486H617.348ZM618.348 42.8486H606.348V44.8486H618.348V42.8486ZM607.348 43.8486V1.84863H605.348V43.8486H607.348ZM606.348 2.84863H618.348V0.848633H606.348V2.84863ZM617.348 1.84863V19.8486H619.348V1.84863H617.348ZM618.348 20.8486H624.348V18.8486H618.348V20.8486ZM625.348 19.8486V13.8486H623.348V19.8486H625.348ZM647.348 1.84863V7.84863H649.348V1.84863H647.348ZM648.348 6.84863H642.348V8.84863H648.348V6.84863ZM641.348 7.84863V13.8486H643.348V7.84863H641.348ZM642.348 12.8486H630.348V14.8486H642.348V12.8486ZM631.348 13.8486V7.84863H629.348V13.8486H631.348ZM630.348 8.84863H636.348V6.84863H630.348V8.84863ZM637.348 7.84863V1.84863H635.348V7.84863H637.348ZM636.348 2.84863H648.348V0.848633H636.348V2.84863ZM662.748 43.8486H661.748V44.8486H662.748V43.8486ZM662.748 37.8486H663.748V36.8486H662.748V37.8486ZM656.748 37.8486H655.748V38.8486H656.748V37.8486ZM656.748 7.84863V6.84863H655.748V7.84863H656.748ZM662.748 7.84863V8.84863H663.748V7.84863H662.748ZM662.748 1.84863V0.848633H661.748V1.84863H662.748ZM692.748 1.84863H693.748V0.848633H692.748V1.84863ZM692.748 7.84863H691.748V8.84863H692.748V7.84863ZM698.748 7.84863H699.748V6.84863H698.748V7.84863ZM698.748 37.8486V38.8486H699.748V37.8486H698.748ZM692.748 37.8486V36.8486H691.748V37.8486H692.748ZM692.748 43.8486V44.8486H693.748V43.8486H692.748ZM668.748 37.8486H667.748V38.8486H668.748V37.8486ZM686.748 37.8486V38.8486H687.748V37.8486H686.748ZM686.748 7.84863H687.748V6.84863H686.748V7.84863ZM668.748 7.84863V6.84863H667.748V7.84863H668.748ZM663.748 43.8486V37.8486H661.748V43.8486H663.748ZM662.748 36.8486H656.748V38.8486H662.748V36.8486ZM657.748 37.8486V7.84863H655.748V37.8486H657.748ZM656.748 8.84863H662.748V6.84863H656.748V8.84863ZM663.748 7.84863V1.84863H661.748V7.84863H663.748ZM662.748 2.84863H692.748V0.848633H662.748V2.84863ZM691.748 1.84863V7.84863H693.748V1.84863H691.748ZM692.748 8.84863H698.748V6.84863H692.748V8.84863ZM697.748 7.84863V37.8486H699.748V7.84863H697.748ZM698.748 36.8486H692.748V38.8486H698.748V36.8486ZM691.748 37.8486V43.8486H693.748V37.8486H691.748ZM692.748 42.8486H662.748V44.8486H692.748V42.8486ZM668.748 38.8486H686.748V36.8486H668.748V38.8486ZM687.748 37.8486V7.84863H685.748V37.8486H687.748ZM686.748 6.84863H668.748V8.84863H686.748V6.84863ZM667.748 7.84863V37.8486H669.748V7.84863H667.748Z" fill="#DFDC01" mask="url(#path-1-outside-1_591_8637)"/>
</svg>
